<svg width="922" height="687" viewBox="0 0 922 687" fill="none" xmlns="http://www.w3.org/2000/svg">
<path d="M922 603.726H0V604.187H922V603.726Z" fill="#EBEBEB"/>
<path d="M642.32 624.305H622.995V624.766H642.32V624.305Z" fill="#EBEBEB"/>
<path d="M193.951 615.085H119.73V615.546H193.951V615.085Z" fill="#EBEBEB"/>
<path d="M339.905 616.449H230.832V616.91H339.905V616.449Z" fill="#EBEBEB"/>
<path d="M496.036 616.449H464.633V616.91H496.036V616.449Z" fill="#EBEBEB"/>
<path d="M822.498 619.363H721.815V619.824H822.498V619.363Z" fill="#EBEBEB"/>
<path d="M421.87 626.96H380.27V627.421H421.87V626.96Z" fill="#EBEBEB"/>
<path d="M859.653 619.602H833.266V620.063H859.653V619.602Z" fill="#EBEBEB"/>
<path d="M437.028 521.483H80.9698C78.1805 521.478 75.507 520.367 73.5364 518.393C71.5658 516.419 70.459 513.743 70.459 510.954V10.437C70.4833 7.66371 71.6008 5.01195 73.5688 3.05775C75.5368 1.10356 78.1964 0.00475086 80.9698 0H437.028C439.82 0 442.498 1.10933 444.473 3.08394C446.448 5.05856 447.557 7.73671 447.557 10.5292V510.954C447.557 513.747 446.448 516.425 444.473 518.399C442.498 520.374 439.82 521.483 437.028 521.483ZM80.9698 0.368801C78.3027 0.373686 75.7466 1.4366 73.8624 3.32423C71.9782 5.21186 70.92 7.76997 70.92 10.437V510.954C70.92 513.621 71.9782 516.179 73.8624 518.067C75.7466 519.954 78.3027 521.017 80.9698 521.022H437.028C439.696 521.017 442.255 519.955 444.142 518.068C446.029 516.181 447.091 513.623 447.096 510.954V10.437C447.091 7.76827 446.029 5.21021 444.142 3.3231C442.255 1.436 439.696 0.373676 437.028 0.368801H80.9698Z" fill="#EBEBEB"/>
<path d="M835.903 521.483H479.827C477.036 521.478 474.361 520.367 472.387 518.394C470.414 516.42 469.303 513.745 469.298 510.954V10.437C469.327 7.66203 470.449 5.01029 472.42 3.0566C474.39 1.10291 477.052 0.00469905 479.827 0H835.903C838.674 0.00959709 841.329 1.11055 843.293 3.06423C845.257 5.01791 846.372 7.6669 846.396 10.437V510.954C846.396 513.74 845.292 516.413 843.325 518.386C841.358 520.36 838.69 521.473 835.903 521.483ZM479.827 0.368801C477.158 0.373676 474.6 1.436 472.713 3.3231C470.826 5.21021 469.764 7.76827 469.759 10.437V510.954C469.764 513.623 470.826 516.181 472.713 518.068C474.6 519.955 477.158 521.017 479.827 521.022H835.903C838.572 521.017 841.13 519.955 843.017 518.068C844.905 516.181 845.967 513.623 845.972 510.954V10.437C845.967 7.76827 844.905 5.21021 843.017 3.3231C841.13 1.436 838.572 0.373676 835.903 0.368801H479.827Z" fill="#EBEBEB"/>
<path d="M134.28 327.181L385.58 327.181L385.58 34.3541L134.28 34.3541L134.28 327.181Z" fill="#F5F5F5"/>
<path d="M127.439 327.181L382.372 327.181L382.372 34.3541L127.439 34.3541L127.439 327.181Z" fill="#F5F5F5"/>
<path d="M134.28 343.574L385.58 343.574V327.162L134.28 327.162V343.574Z" fill="#E6E6E6"/>
<path d="M96.2016 343.574L336.198 343.574V327.162H96.2016V343.574Z" fill="#F5F5F5"/>
<path d="M372.82 314.753V46.764L137.01 46.764L137.01 314.753H372.82Z" fill="#FAFAFA"/>
<path d="M338.891 314.752L282.759 46.7818H209.202L265.315 314.752H338.891Z" fill="white"/>
<path d="M253.402 314.752L197.289 46.7818H164.061L220.192 314.752H253.402Z" fill="white"/>
<path d="M138.207 286.723L138.207 45.1039H136.99L136.99 286.723H138.207Z" fill="white"/>
<path d="M392.771 33.9293V138.189H365.111C365.111 138.189 315.545 105.864 304.259 39.3506C303.991 37.7666 304.072 36.1433 304.495 34.5934C304.918 33.0436 305.673 31.6045 306.709 30.3761C307.744 29.1478 309.034 28.1596 310.49 27.4803C311.946 26.801 313.532 26.4469 315.139 26.4426H385.211C386.2 26.4353 387.18 26.6235 388.096 26.9962C389.011 27.369 389.844 27.919 390.547 28.6147C391.25 29.3103 391.808 30.138 392.189 31.05C392.571 31.9621 392.769 32.9406 392.771 33.9293Z" fill="#E6E6E6"/>
<path d="M392.772 305.311V146.598H365.112C365.112 146.598 349.254 178.646 333.432 215.489C329.255 225.301 327.574 235.994 328.54 246.614C329.505 257.234 333.087 267.449 338.965 276.346C344.843 285.244 352.834 292.546 362.223 297.6C371.613 302.655 382.108 305.304 392.772 305.311Z" fill="#E6E6E6"/>
<path d="M365.96 146.598H391.72C393.248 146.598 394.486 145.359 394.486 143.832V140.955C394.486 139.427 393.248 138.189 391.72 138.189H365.96C364.432 138.189 363.194 139.427 363.194 140.955V143.832C363.194 145.359 364.432 146.598 365.96 146.598Z" fill="#F5F5F5"/>
<path d="M119.621 33.9293V138.189H147.281C147.281 138.189 196.848 105.864 208.133 39.3506C208.401 37.7666 208.32 36.1433 207.897 34.5934C207.474 33.0436 206.719 31.6045 205.684 30.3761C204.648 29.1478 203.358 28.1596 201.902 27.4803C200.446 26.801 198.86 26.4469 197.253 26.4426H127.181C126.193 26.4353 125.212 26.6235 124.297 26.9962C123.381 27.369 122.548 27.919 121.845 28.6147C121.143 29.3103 120.585 30.138 120.203 31.05C119.821 31.9621 119.623 32.9406 119.621 33.9293Z" fill="#E6E6E6"/>
<path d="M119.621 305.311V146.598H147.281C147.281 146.598 163.139 178.646 178.961 215.489C183.136 225.295 184.817 235.982 183.855 246.596C182.893 257.21 179.318 267.42 173.449 276.316C167.579 285.211 159.598 292.515 150.219 297.574C140.839 302.634 130.352 305.292 119.695 305.311H119.621Z" fill="#E6E6E6"/>
<path d="M146.413 138.189H120.653C119.125 138.189 117.887 139.428 117.887 140.955V143.832C117.887 145.36 119.125 146.598 120.653 146.598H146.413C147.941 146.598 149.179 145.36 149.179 143.832V140.955C149.179 139.428 147.941 138.189 146.413 138.189Z" fill="#F5F5F5"/>
<path d="M681.1 269.887H791.795V70.3113H681.1V269.887Z" fill="#E0E0E0"/>
<path d="M668.709 269.887H788.975V70.3113L668.709 70.3113V269.887Z" fill="#F5F5F5"/>
<path d="M776.564 257.478V82.7037H681.101V257.478H776.564Z" fill="white"/>
<path d="M743.206 143.795V117.961H714.458V143.795H743.206Z" fill="#F5F5F5"/>
<path d="M743.206 182.999V157.164H714.458V182.999H743.206Z" fill="#F5F5F5"/>
<path d="M743.206 222.202V196.368H714.458V222.202H743.206Z" fill="#F5F5F5"/>
<path d="M562.715 223.124C578.591 222.847 593.722 216.346 604.851 205.021C615.98 193.696 622.216 178.454 622.216 162.576C622.216 146.698 615.98 131.456 604.851 120.131C593.722 108.806 578.591 102.305 562.715 102.028H559.027V223.124H562.715Z" fill="#E6E6E6"/>
<path d="M573.12 221.459C605.633 213.665 625.673 180.99 617.879 148.476C610.085 115.963 577.41 95.9235 544.896 103.717C512.383 111.511 492.343 144.187 500.137 176.7C507.931 209.213 540.607 229.253 573.12 221.459Z" fill="#F5F5F5"/>
<path d="M566.362 207.691C591.247 203.62 608.121 180.147 604.05 155.262C599.98 130.377 576.506 113.503 551.621 117.574C526.736 121.644 509.862 145.118 513.933 170.003C518.004 194.888 541.477 211.762 566.362 207.691Z" fill="white"/>
<path d="M540.108 179.624L536.549 174.516L555.542 161.276L549.272 130.776L555.358 129.522L562.457 164.023L540.108 179.624Z" fill="#E6E6E6"/>
<path d="M264.614 610.272H343.74V396.478H264.614V610.272Z" fill="#E6E6E6"/>
<path d="M285.747 610.254H264.614V574.849H307.893L285.747 610.254Z" fill="#F0F0F0"/>
<path d="M738.982 610.272H818.108V396.478H738.982V610.272Z" fill="#F0F0F0"/>
<path d="M264.614 598.083L757.441 598.083V396.478L264.614 396.478V598.083Z" fill="#FAFAFA"/>
<path d="M736.309 610.254H757.442V574.849H714.145L736.309 610.254Z" fill="#F0F0F0"/>
<path d="M281.007 488.015L741.048 488.015V413.812L281.007 413.812V488.015Z" fill="#F0F0F0"/>
<path d="M281.007 580.14H741.048V505.938L281.007 505.938V580.14Z" fill="#F0F0F0"/>
<path d="M619.4 375.586C628.525 375.586 635.922 368.189 635.922 359.064C635.922 349.939 628.525 342.541 619.4 342.541C610.275 342.541 602.878 349.939 602.878 359.064C602.878 368.189 610.275 375.586 619.4 375.586Z" fill="#F5F5F5"/>
<path d="M631.054 366.956C631.054 369.509 631.811 372.004 633.229 374.127C634.647 376.25 636.663 377.904 639.022 378.881C641.381 379.858 643.976 380.114 646.48 379.616C648.984 379.118 651.284 377.888 653.089 376.083C654.894 374.278 656.124 371.978 656.622 369.474C657.12 366.97 656.864 364.375 655.887 362.016C654.91 359.657 653.256 357.641 651.133 356.223C649.01 354.805 646.515 354.048 643.962 354.048C640.538 354.048 637.255 355.408 634.834 357.828C632.414 360.249 631.054 363.532 631.054 366.956Z" fill="#F5F5F5"/>
<path d="M591.131 383.46C600.256 383.46 607.653 376.062 607.653 366.937C607.653 357.812 600.256 350.415 591.131 350.415C582.006 350.415 574.608 357.812 574.608 366.937C574.608 376.062 582.006 383.46 591.131 383.46Z" fill="#F5F5F5"/>
<path d="M564.043 378.61C573.168 378.61 580.565 371.212 580.565 362.087C580.565 352.962 573.168 345.565 564.043 345.565C554.918 345.565 547.521 352.962 547.521 362.087C547.521 371.212 554.918 378.61 564.043 378.61Z" fill="#F5F5F5"/>
<path d="M689.454 364.246C689.454 364.246 687.186 396.46 600.241 396.46C513.296 396.46 511.028 364.246 511.028 364.246H689.454Z" fill="#E6E6E6"/>
<path d="M461 687.001C658.46 687.001 818.533 677.655 818.533 666.127C818.533 654.598 658.46 645.253 461 645.253C263.54 645.253 103.467 654.598 103.467 666.127C103.467 677.655 263.54 687.001 461 687.001Z" fill="#F5F5F5"/>
<path d="M380.417 194.799C380.657 195.611 381.081 196.846 381.45 197.879L382.63 201.18C383.441 203.374 384.327 205.55 385.267 207.707C387.106 211.977 389.174 216.145 391.463 220.191C395.999 228.121 401.513 235.294 408.059 239.885L409.202 240.678C409.202 240.678 409.202 240.807 409.479 240.844C410.727 240.812 411.948 240.477 413.038 239.867C416.817 237.865 420.293 235.338 423.364 232.362C426.912 229.114 430.291 225.685 433.488 222.091C436.77 218.403 439.997 214.586 443.04 210.842L451.835 216.153C447.266 225.842 441.525 234.933 434.742 243.223C431.015 247.832 426.599 251.837 421.649 255.098C418.397 257.193 414.717 258.535 410.88 259.026C408.438 259.274 405.971 259.049 403.615 258.362C402.4 258.006 401.226 257.524 400.111 256.924L397.991 255.744C392.836 252.636 388.17 248.783 384.142 244.311C380.292 240.104 376.858 235.534 373.89 230.665C370.977 225.938 368.407 221.008 366.2 215.913C365.112 213.405 364.079 210.861 363.139 208.298C362.66 207.007 362.199 205.716 361.774 204.388C361.35 203.061 360.963 201.844 360.521 200.202L380.417 194.799Z" fill="#B97964"/>
<path d="M399.466 227.384L375.881 240.439C375.881 240.439 375.18 239.425 374.037 237.673C373.207 236.382 372.193 234.686 370.902 232.694C363.969 221.427 352.462 200.848 355.468 192.126C360.06 178.702 376.988 178.923 385.304 194.487C389.325 202.241 392.926 210.206 396.091 218.348C396.958 220.524 397.677 222.423 398.231 223.88C399.023 226.111 399.466 227.384 399.466 227.384Z" fill="#407BFF"/>
<path opacity="0.2" d="M399.466 227.384L375.881 240.439C375.881 240.439 375.18 239.425 374.037 237.673C373.207 236.382 372.193 234.686 370.902 232.694C363.969 221.427 352.462 200.848 355.468 192.126C360.06 178.702 376.988 178.923 385.304 194.487C389.325 202.241 392.926 210.206 396.091 218.348C396.958 220.524 397.677 222.423 398.231 223.88C399.023 226.111 399.466 227.384 399.466 227.384Z" fill="black"/>
<path opacity="0.2" d="M398.304 223.972L374.11 237.673C373.281 236.382 372.266 234.686 370.976 232.694L396.165 218.422C396.958 220.598 397.677 222.497 398.304 223.972Z" fill="black"/>
<path opacity="0.2" d="M355.118 193.749C360.392 191.204 366.477 193.325 372.857 203.43C379.237 213.535 384.714 230.5 385.396 235.239L375.973 240.439C375.973 240.439 353.182 207.192 355.118 193.749Z" fill="black"/>
<path d="M376.987 301.696H303.873C303.356 295.168 304.868 273.926 303.743 246.874C303.048 226.823 300.618 206.87 296.478 187.239C296.146 185.764 295.814 184.307 295.464 182.832C295.464 182.832 299.152 182.076 304.481 181.301C308.888 180.656 314.42 179.992 319.842 179.734C330.19 179.144 340.564 179.144 350.913 179.734C355.689 180.177 360.354 180.97 364.079 181.689C368.837 182.648 372.082 183.533 372.082 183.533C372.082 183.533 389.655 224.82 376.987 301.696Z" fill="#407BFF"/>
<path opacity="0.2" d="M376.987 301.696H303.873C303.356 295.168 304.868 273.926 303.743 246.874C303.048 226.823 300.618 206.87 296.478 187.239C296.146 185.764 295.814 184.307 295.464 182.832C295.464 182.832 299.152 182.076 304.481 181.301C308.888 180.656 314.42 179.992 319.842 179.734C330.19 179.144 340.564 179.144 350.913 179.734C355.689 180.177 360.354 180.97 364.079 181.689C368.837 182.648 372.082 183.533 372.082 183.533C372.082 183.533 389.655 224.82 376.987 301.696Z" fill="black"/>
<path d="M277.282 628.546L288.125 638.245L308.741 616.762L297.917 607.063L277.282 628.546Z" fill="#B97964"/>
<path d="M314.402 648.738H328.066L329.855 617.076H316.173L314.402 648.738Z" fill="#B97964"/>
<path d="M308.741 616.781L298.102 627.845L287.259 618.145L297.899 607.063L308.741 616.781Z" fill="#A76755"/>
<path d="M316.173 617.094H329.855L328.933 633.413H315.251L316.173 617.094Z" fill="#A76755"/>
<path d="M376.287 300.996C376.287 300.996 390.688 400.683 395.612 454.951C399.558 498.47 305.422 628.287 305.422 628.287L287.203 611.157C287.203 611.157 355.966 494.782 350.674 446.322C345.547 399.373 328.177 300.941 328.177 300.941L376.287 300.996Z" fill="#407BFF"/>
<path opacity="0.7" d="M376.287 300.996C376.287 300.996 390.688 400.683 395.612 454.951C399.558 498.47 305.422 628.287 305.422 628.287L287.203 611.157C287.203 611.157 355.966 494.782 350.674 446.322C345.547 399.373 328.177 300.941 328.177 300.941L376.287 300.996Z" fill="black"/>
<path d="M328.786 647.244H313.48C313.352 647.239 313.224 647.259 313.103 647.304C312.983 647.348 312.872 647.416 312.778 647.503C312.684 647.591 312.608 647.696 312.554 647.813C312.501 647.929 312.471 648.056 312.466 648.184L311.729 660.336C311.728 660.975 311.98 661.589 312.428 662.044C312.877 662.5 313.487 662.76 314.126 662.77C319.473 662.678 322.018 662.346 328.878 662.346C333.027 662.346 350.692 662.788 356.427 662.788C362.162 662.788 361.959 657.109 359.58 656.593C348.664 654.288 335.147 651.061 331.293 648.092C330.585 647.519 329.696 647.218 328.786 647.244Z" fill="#263238"/>
<path d="M291.112 634.335L277.928 625.466C277.714 625.3 277.451 625.21 277.181 625.21C276.911 625.21 276.648 625.3 276.434 625.466L266.366 635.626C266.166 635.85 266.018 636.115 265.933 636.402C265.848 636.689 265.828 636.992 265.873 637.288C265.919 637.585 266.03 637.867 266.198 638.115C266.366 638.364 266.587 638.572 266.845 638.724C275.254 645.197 281.321 650.065 286.097 655.449C291.629 661.756 294.634 662.641 307.542 662.641C313.517 662.641 316.892 657.607 314.457 656.832C292.938 650.028 298.691 647.059 293.473 637.083C292.918 635.991 292.108 635.049 291.112 634.335Z" fill="#263238"/>
<path d="M441.417 213.166L446.119 198.119L458.326 207.062C458.326 207.062 451.651 220.468 447.133 219.251L441.417 213.166Z" fill="#B97964"/>
<path d="M458.973 192.366L465.851 200.793L458.327 207.062L446.12 198.119L458.973 192.366Z" fill="#B97964"/>
<path opacity="0.2" d="M303.744 246.875C303.049 226.824 300.618 206.871 296.479 187.24C301.365 186.815 309.718 187.24 311.101 195.187C312.595 203.67 310.714 223.622 303.744 246.875Z" fill="black"/>
<path opacity="0.5" d="M350.674 446.358C348.037 422.184 342.136 384.308 337.065 353.292C339.72 348.092 347.152 337.581 347.152 337.581C353.827 360.649 368.339 447.594 347.649 565.038C326.075 599.816 305.422 628.324 305.422 628.324L302.601 583.478C322.534 545.971 354.343 479.901 350.674 446.358Z" fill="black"/>
<path d="M308.722 202.692L305.495 208.224C304.388 210.142 303.319 212.078 302.286 214.033C300.184 217.942 298.162 221.876 296.219 225.835C294.375 229.799 292.531 233.782 290.89 237.765C289.305 241.694 287.92 245.701 286.741 249.77L286.52 250.507L286.409 250.895C286.349 250.996 286.311 251.109 286.299 251.227C286.242 251.797 286.242 252.371 286.299 252.941C286.489 254.682 286.854 256.4 287.387 258.068C288.664 262.07 290.223 265.977 292.052 269.759C295.74 277.688 300.221 285.746 304.702 293.528L296.607 299.853C289.882 293.014 283.802 285.569 278.443 277.614C275.601 273.406 273.133 268.957 271.067 264.319C269.901 261.673 268.999 258.918 268.375 256.095C268.015 254.391 267.83 252.655 267.822 250.913C267.808 249.864 267.882 248.815 268.043 247.778L268.172 247.022V246.543L268.375 245.602C270.362 235.865 273.423 226.378 277.503 217.315C279.439 212.853 281.56 208.501 283.828 204.241C284.971 202.102 286.133 200 287.35 197.898C288.567 195.796 289.765 193.804 291.204 191.573L308.722 202.692Z" fill="#B97964"/>
<path d="M313.61 207.726C310.201 217.17 306.241 226.406 301.753 235.386C300.775 237.415 299.909 239.222 299.134 240.679C297.843 243.242 297.032 244.791 297.032 244.791L269.372 229.449C269.372 229.449 269.722 228.287 270.349 226.332C270.829 224.857 271.456 222.921 272.193 220.69C276.803 207.542 286.226 184.086 295.465 182.74C309.276 180.822 319.215 191.149 313.61 207.726Z" fill="#407BFF"/>
<path opacity="0.2" d="M301.753 235.479C300.775 237.507 299.909 239.315 299.134 240.771L270.312 226.425C270.792 224.95 271.419 223.014 272.157 220.782L301.753 235.479Z" fill="black"/>
<path d="M333.635 649.531C332.392 649.502 331.155 649.342 329.947 649.051C329.885 649.034 329.829 649.002 329.783 648.956C329.738 648.911 329.705 648.855 329.689 648.793C329.682 648.732 329.692 648.671 329.718 648.616C329.744 648.56 329.785 648.513 329.836 648.48C330.26 648.166 334.151 645.529 335.811 646.175C336 646.25 336.168 646.373 336.297 646.531C336.426 646.689 336.512 646.877 336.548 647.078C336.632 647.378 336.639 647.694 336.568 647.997C336.497 648.3 336.351 648.58 336.143 648.812C335.422 649.349 334.53 649.605 333.635 649.531ZM330.869 648.59C333.321 649.07 335.11 648.996 335.755 648.369C335.888 648.214 335.978 648.027 336.017 647.827C336.056 647.626 336.042 647.419 335.977 647.226C335.963 647.127 335.924 647.034 335.862 646.956C335.8 646.879 335.719 646.819 335.626 646.783C334.723 646.433 332.454 647.576 330.869 648.59Z" fill="#407BFF"/>
<path d="M330.076 649.087C330.028 649.103 329.977 649.103 329.929 649.087C329.882 649.061 329.843 649.024 329.814 648.979C329.785 648.934 329.768 648.882 329.763 648.829C329.763 648.663 329.449 644.736 330.832 643.408C331.006 643.234 331.219 643.103 331.453 643.026C331.687 642.949 331.935 642.928 332.179 642.965C332.45 642.978 332.71 643.078 332.919 643.251C333.129 643.424 333.277 643.66 333.34 643.924C333.654 645.418 331.607 648.276 330.242 649.087H330.076ZM331.92 643.555C331.794 643.552 331.668 643.575 331.55 643.623C331.433 643.67 331.327 643.741 331.238 643.832C330.479 645.142 330.162 646.661 330.335 648.165C331.515 647.17 332.879 644.994 332.676 644.016C332.676 643.832 332.529 643.611 332.068 643.555H331.92Z" fill="#407BFF"/>
<path d="M299.963 641.712C297.524 641.338 295.196 640.438 293.14 639.075C293.084 639.042 293.04 638.992 293.013 638.933C292.987 638.873 292.98 638.807 292.993 638.743C293.007 638.677 293.041 638.617 293.09 638.571C293.14 638.525 293.202 638.495 293.269 638.485C294.007 638.485 300.479 638.006 301.733 639.481C301.835 639.609 301.904 639.759 301.936 639.92C301.968 640.08 301.962 640.246 301.918 640.403C301.864 640.657 301.748 640.895 301.581 641.094C301.414 641.294 301.2 641.449 300.959 641.546C300.639 641.661 300.302 641.717 299.963 641.712ZM294.431 639.057C297.381 640.679 299.705 641.38 300.737 640.901C300.889 640.839 301.024 640.741 301.13 640.616C301.236 640.491 301.31 640.342 301.346 640.182C301.377 640.128 301.393 640.068 301.393 640.006C301.393 639.945 301.377 639.884 301.346 639.831C300.571 639.13 297.031 639.001 294.394 639.112L294.431 639.057Z" fill="#407BFF"/>
<path d="M293.307 639.185C293.252 639.185 293.198 639.172 293.15 639.146C293.102 639.12 293.06 639.083 293.03 639.038C293.007 638.988 292.995 638.935 292.995 638.881C292.995 638.827 293.007 638.773 293.03 638.724C293.141 638.503 295.612 633.487 298.765 635.036C299.632 635.46 299.724 635.976 299.65 636.327C299.318 637.802 295.206 639.167 293.325 639.222L293.307 639.185ZM297.566 635.368C295.888 635.368 294.45 637.507 293.878 638.503C295.851 638.245 298.839 637.028 299.023 636.161C299.023 635.958 298.876 635.774 298.488 635.571C298.201 635.433 297.885 635.364 297.566 635.368Z" fill="#407BFF"/>
<path d="M301.033 290.633L314.642 288.272L307.653 304.02C307.653 304.02 295.225 304.02 295.796 297.548L301.033 290.633Z" fill="#B97964"/>
<path d="M324.784 296.183L318.404 308.907L307.653 304.02L314.642 288.272L324.784 296.183Z" fill="#B97964"/>
<path d="M286.097 610.161L306.528 629.375L313.093 622.313L289.748 601.033L286.097 610.161Z" fill="#407BFF"/>
<path opacity="0.7" d="M286.097 610.161L306.528 629.375L313.093 622.313L289.748 601.033L286.097 610.161Z" fill="white"/>
<path d="M350.36 300.996C350.36 300.996 351.669 405.477 349.456 444.606C347.022 487.479 334.87 629.467 334.87 629.467H309.792C309.792 629.467 310.529 490.928 309.036 448.497C307.395 402.397 303.153 300.977 303.153 300.977L350.36 300.996Z" fill="#407BFF"/>
<path opacity="0.7" d="M350.36 300.996C350.36 300.996 351.669 405.477 349.456 444.606C347.022 487.479 334.87 629.467 334.87 629.467H309.792C309.792 629.467 310.529 490.928 309.036 448.497C307.395 402.397 303.153 300.977 303.153 300.977L350.36 300.996Z" fill="black"/>
<path d="M308.741 629.468H335.792L337.304 619.971L307.432 621.447L308.741 629.468Z" fill="#407BFF"/>
<path opacity="0.7" d="M308.741 629.468H335.792L337.304 619.971L307.432 621.447L308.741 629.468Z" fill="white"/>
<path opacity="0.2" d="M313.61 207.726C310.201 217.17 306.241 226.406 301.753 235.386C300.775 237.415 299.909 239.222 299.134 240.679C297.843 243.242 297.032 244.791 297.032 244.791L269.372 229.449C269.372 229.449 269.722 228.287 270.349 226.332C270.829 224.857 271.456 222.921 272.193 220.69C276.803 207.542 286.226 184.086 295.465 182.74C309.276 180.822 319.215 191.149 313.61 207.726Z" fill="black"/>
<path d="M362.585 190.374C361.11 195.261 357.053 201.788 345.713 205.126L342.762 206.011L339.757 205.476C316.615 201.327 308.095 188.88 306.565 186.465L303.467 181.301C307.874 180.656 313.406 179.992 318.827 179.734C329.176 179.144 339.55 179.144 349.899 179.734C354.675 180.177 359.34 180.97 363.065 181.689C363.579 184.582 363.415 187.555 362.585 190.374Z" fill="#407BFF"/>
<path opacity="0.4" d="M362.585 190.374C361.11 195.261 357.053 201.788 345.713 205.126L342.762 206.011L339.757 205.476C316.615 201.327 308.095 188.88 306.565 186.465L303.467 181.301C307.874 180.656 313.406 179.992 318.827 179.734C329.176 179.144 339.55 179.144 349.899 179.734C354.675 180.177 359.34 180.97 363.065 181.689C363.579 184.582 363.415 187.555 362.585 190.374Z" fill="black"/>
<path d="M342.984 192.772C324.434 189.434 318.625 179.864 318.625 179.864C325.392 173.189 322.792 154.951 320.469 144.938L328.785 151.835L340.108 161.239C339.772 162.747 339.532 164.275 339.388 165.813C338.78 171.953 340.366 177.54 349.401 179.679C349.438 179.624 356.925 188.623 342.984 192.772Z" fill="#B97964"/>
<path d="M340.145 161.184C339.81 162.692 339.569 164.219 339.426 165.757C335.203 164.909 329.561 160.409 328.971 156.095C328.763 154.666 328.714 153.219 328.823 151.78L340.145 161.184Z" fill="#A76755"/>
<path d="M347.834 109.958C354.583 113 358.327 131.975 349.678 136.069C341.03 140.162 335.074 104.186 347.834 109.958Z" fill="#263238"/>
<path d="M317.168 130.481C320.063 143.776 321.078 151.687 328.933 157.754C331.466 159.749 334.496 161.015 337.695 161.414C340.895 161.814 344.143 161.332 347.088 160.02C350.034 158.709 352.565 156.618 354.409 153.973C356.253 151.328 357.34 148.229 357.552 145.012C358.585 132.639 353.68 112.982 339.684 109.22C336.677 108.324 333.487 108.234 330.435 108.96C327.383 109.686 324.575 111.202 322.294 113.357C320.013 115.511 318.338 118.227 317.439 121.233C316.539 124.238 316.446 127.428 317.168 130.481Z" fill="#B97964"/>
<path d="M301.66 117.297C295.188 120.155 298.857 129.006 303.264 134.63C309.368 142.449 315.822 146.1 320.211 142.504C324.157 140.531 326.757 128.895 323.327 121.722C329.394 117.721 341.988 122.663 345.916 116.19C349.844 109.718 352.647 110.253 359.562 114.531C366.477 118.809 372.009 101.899 354.03 98.7459C363.987 103.227 361.701 111.949 354.417 103.006C349.272 96.6991 336.936 89.7288 328.361 99.1332C322.036 105.993 299.816 95.3899 301.66 117.297Z" fill="#263238"/>
<path d="M314.015 144.348C316.172 146.942 319.152 148.719 322.46 149.382C326.646 150.083 327.587 146.21 325.466 142.448C323.622 139.074 319.049 134.63 315.306 135.626C311.562 136.621 311.304 141.084 314.015 144.348Z" fill="#B97964"/>
<path d="M338.06 131.809C338.226 132.897 338.945 133.653 339.665 133.653C340.384 133.653 340.826 132.62 340.642 131.532C340.457 130.444 339.775 129.688 339.056 129.688C338.337 129.688 337.894 130.702 338.06 131.809Z" fill="#263238"/>
<path d="M350.36 130.334C350.526 131.422 351.245 132.178 351.965 132.178C352.684 132.178 353.126 131.127 352.96 130.039C352.794 128.951 352.075 128.195 351.356 128.195C350.637 128.195 350.36 129.246 350.36 130.334Z" fill="#263238"/>
<path d="M346.672 131.348C348.501 134.533 350.746 137.459 353.347 140.052C352.667 140.674 351.859 141.139 350.979 141.413C350.1 141.687 349.17 141.764 348.258 141.638L346.672 131.348Z" fill="#A24E3F"/>
<path d="M344.146 145.104C342.869 145.12 341.602 144.878 340.42 144.393C339.238 143.909 338.166 143.191 337.268 142.283C337.208 142.221 337.175 142.139 337.175 142.053C337.175 141.967 337.208 141.884 337.268 141.822C337.33 141.762 337.412 141.729 337.498 141.729C337.584 141.729 337.667 141.762 337.729 141.822C338.724 142.787 339.924 143.515 341.239 143.953C342.554 144.39 343.951 144.525 345.326 144.348C345.369 144.343 345.412 144.347 345.453 144.359C345.494 144.372 345.533 144.392 345.565 144.42C345.598 144.447 345.625 144.482 345.644 144.52C345.663 144.559 345.674 144.601 345.677 144.643C345.685 144.685 345.683 144.728 345.673 144.769C345.663 144.81 345.645 144.849 345.618 144.882C345.592 144.915 345.559 144.942 345.521 144.962C345.484 144.981 345.442 144.992 345.4 144.994C344.985 145.056 344.566 145.093 344.146 145.104Z" fill="#263238"/>
<path d="M333.617 128.268C333.514 128.296 333.406 128.296 333.303 128.268C333.154 128.183 333.043 128.043 332.995 127.878C332.947 127.713 332.965 127.536 333.045 127.383C333.53 126.487 334.224 125.72 335.068 125.149C335.913 124.578 336.882 124.218 337.895 124.101C338.049 124.127 338.19 124.207 338.291 124.327C338.393 124.447 338.448 124.599 338.448 124.756C338.448 124.913 338.393 125.064 338.291 125.184C338.19 125.304 338.049 125.384 337.895 125.41C337.1 125.501 336.34 125.786 335.68 126.239C335.021 126.692 334.484 127.301 334.114 128.01C334.055 128.087 333.98 128.15 333.894 128.195C333.808 128.239 333.713 128.264 333.617 128.268Z" fill="#263238"/>
<path d="M355.099 125.392C354.993 125.389 354.889 125.361 354.796 125.31C354.703 125.258 354.623 125.185 354.564 125.097C354.118 124.398 353.517 123.811 352.807 123.382C352.097 122.953 351.297 122.695 350.471 122.626C350.299 122.626 350.135 122.558 350.014 122.437C349.893 122.316 349.825 122.152 349.825 121.981C349.825 121.809 349.893 121.645 350.014 121.524C350.135 121.403 350.299 121.335 350.471 121.335C351.511 121.395 352.523 121.702 353.421 122.231C354.319 122.76 355.078 123.496 355.634 124.378C355.683 124.448 355.717 124.527 355.736 124.61C355.754 124.694 355.755 124.78 355.74 124.864C355.724 124.948 355.692 125.028 355.646 125.1C355.599 125.172 355.539 125.233 355.468 125.281C355.359 125.354 355.23 125.392 355.099 125.392Z" fill="#263238"/>
<g opacity="0.9">
<path opacity="0.9" d="M547.557 338.799C549.125 334.87 551.803 331.484 555.265 329.054C558.726 326.624 562.821 325.256 567.048 325.116H729.615C739.351 325.116 745.935 333.008 744.367 342.763L692.938 649.808C692.031 654.663 689.496 659.064 685.752 662.286C682.008 665.507 677.277 667.357 672.34 667.528H264.706C262.486 667.614 260.277 667.19 258.246 666.289C256.216 665.387 254.42 664.032 252.996 662.328C251.571 660.624 250.556 658.616 250.029 656.458C249.501 654.3 249.476 652.05 249.954 649.881L293.675 388.494C294.6 383.654 297.142 379.271 300.884 376.065C304.627 372.859 309.347 371.019 314.272 370.847H502.029C521.243 370.773 540.107 357.515 547.557 338.799Z" fill="#407BFF"/>
</g>
<path opacity="0.5" d="M547.557 338.799C549.125 334.87 551.803 331.484 555.265 329.054C558.726 326.624 562.821 325.256 567.048 325.116H729.615C739.351 325.116 745.935 333.008 744.367 342.763L692.938 649.808C692.031 654.663 689.496 659.064 685.752 662.286C682.008 665.507 677.277 667.357 672.34 667.528H264.706C262.486 667.614 260.277 667.19 258.246 666.289C256.216 665.387 254.42 664.032 252.996 662.328C251.571 660.624 250.556 658.616 250.029 656.458C249.501 654.3 249.476 652.05 249.954 649.881L293.675 388.494C294.6 383.654 297.142 379.271 300.884 376.065C304.627 372.859 309.347 371.019 314.272 370.847H502.029C521.243 370.773 540.107 357.515 547.557 338.799Z" fill="white"/>
<path opacity="0.9" d="M482.851 66.1815L359.838 493.621L641.232 574.591L764.227 147.152L482.851 66.1815Z" fill="#407BFF"/>
<path opacity="0.7" d="M482.851 66.1815L359.838 493.621L641.232 574.591L764.227 147.152L482.851 66.1815Z" fill="white"/>
<g style="mix-blend-mode:multiply" opacity="0.9">
<path d="M477.393 85.1197L359.838 493.621L631.662 571.843L741.841 149.051L477.393 85.1197Z" fill="#407BFF"/>
</g>
<path opacity="0.6" d="M477.393 85.1197L359.838 493.621L631.662 571.843L741.841 149.051L477.393 85.1197Z" fill="#407BFF"/>
<g opacity="0.9">
<g style="mix-blend-mode:multiply" opacity="0.9">
<path d="M477.393 85.1197L359.838 493.621L631.662 571.844L741.841 149.051L477.393 85.1197Z" fill="white"/>
</g>
<path opacity="0.6" d="M477.393 85.1197L359.838 493.621L631.662 571.844L741.841 149.051L477.393 85.1197Z" fill="white"/>
</g>
<path d="M577.031 200.846C595.474 179.756 593.328 147.709 572.239 129.265C551.149 110.822 519.101 112.968 500.658 134.057C482.215 155.147 484.36 187.195 505.45 205.638C526.54 224.081 558.587 221.936 577.031 200.846Z" fill="#407BFF"/>
<path d="M527.716 206.031C520.079 203.824 513.268 199.403 508.144 193.326C503.019 187.249 499.812 179.789 498.926 171.889C498.04 163.99 499.517 156.005 503.169 148.944C506.82 141.883 512.484 136.064 519.442 132.221C526.401 128.378 534.343 126.685 542.264 127.355C550.184 128.025 557.729 131.029 563.943 135.986C570.157 140.943 574.762 147.631 577.176 155.205C579.59 162.778 579.704 170.898 577.504 178.537C576.044 183.614 573.598 188.353 570.305 192.483C567.011 196.614 562.936 200.054 558.311 202.608C553.687 205.162 548.604 206.779 543.355 207.366C538.105 207.953 532.79 207.499 527.716 206.031Z" fill="white"/>
<path d="M558.409 248.362L468.846 222.595L463.054 242.727L552.617 268.493L558.409 248.362Z" fill="#407BFF"/>
<path d="M469.49 406.199L420.119 391.995L397.605 470.252L446.977 484.456L469.49 406.199Z" fill="#407BFF"/>
<path d="M644.192 456.468L594.82 442.264L572.307 520.521L621.678 534.725L644.192 456.468Z" fill="#407BFF"/>
<path d="M556.832 431.342L507.461 417.139L484.947 495.396L534.319 509.599L556.832 431.342Z" fill="#407BFF"/>
<path d="M630.78 269.166L570.191 251.735L564.4 271.866L624.989 289.297L630.78 269.166Z" fill="#407BFF"/>
<path d="M677.971 330.107L456.261 266.323L453.875 274.617L675.585 338.401L677.971 330.107Z" fill="white"/>
<path d="M561.437 315.662L451.193 283.946L448.807 292.239L559.051 323.955L561.437 315.662Z" fill="white"/>
<path d="M654.034 342.301L580.296 321.088L577.91 329.381L651.648 350.595L654.034 342.301Z" fill="white"/>
<path d="M623.352 352.541L446.122 301.554L443.736 309.847L620.966 360.835L623.352 352.541Z" fill="white"/>
<path d="M642.533 379.626L439.026 320.27L436.61 328.555L640.117 387.911L642.533 379.626Z" fill="white"/>
<path d="M459.508 343.579L435.975 336.809L433.589 345.102L457.122 351.873L459.508 343.579Z" fill="white"/>
<path d="M582.383 378.933L478.395 349.017L476.009 357.31L579.997 387.227L582.383 378.933Z" fill="white"/>
<path d="M652.622 418.224L430.912 354.441L428.526 362.734L650.236 426.518L652.622 418.224Z" fill="white"/>
<path d="M450.102 81.1364L341.951 512.632L625.927 583.829L734.059 152.333L450.102 81.1364Z" fill="#407BFF"/>
<path opacity="0.8" d="M450.102 81.1364L341.951 512.632L625.927 583.829L734.059 152.333L450.102 81.1364Z" fill="white"/>
<path d="M531.622 225.937C556.85 213.752 567.424 183.423 555.239 158.195C543.054 132.967 512.725 122.393 487.497 134.578C462.269 146.763 451.695 177.092 463.88 202.32C476.065 227.548 506.394 238.122 531.622 225.937Z" fill="#407BFF"/>
<path d="M549.067 187.533C553.064 165.694 538.599 144.751 516.761 140.755C494.922 136.758 473.978 151.222 469.982 173.061C465.986 194.9 480.45 215.843 502.289 219.84C524.127 223.836 545.071 209.372 549.067 187.533Z" fill="white"/>
<path d="M531.919 260.546L441.52 237.89L436.427 258.209L526.827 280.866L531.919 260.546Z" fill="#407BFF"/>
<path d="M448.503 421.371L398.671 408.881L378.874 487.87L428.707 500.359L448.503 421.371Z" fill="#407BFF"/>
<path d="M624.816 465.565L574.983 453.076L555.187 532.064L605.02 544.553L624.816 465.565Z" fill="#407BFF"/>
<path d="M536.667 443.468L486.834 430.979L467.038 509.967L516.87 522.456L536.667 443.468Z" fill="#407BFF"/>
<path d="M604.943 278.841L543.788 263.514L538.696 283.834L599.85 299.161L604.943 278.841Z" fill="#407BFF"/>
<path d="M654.223 338.108L430.441 282.022L428.343 290.393L652.125 346.479L654.223 338.108Z" fill="white"/>
<path d="M537.267 327.692L425.993 299.804L423.895 308.175L535.169 336.063L537.267 327.692Z" fill="white"/>
<path d="M630.724 351.108L556.297 332.455L554.199 340.826L628.626 359.479L630.724 351.108Z" fill="white"/>
<path d="M600.413 362.424L421.527 317.59L419.429 325.961L598.315 370.795L600.413 362.424Z" fill="white"/>
<path d="M622.711 386.928L417.084 335.393L414.986 343.764L620.613 395.299L622.711 386.928Z" fill="white"/>
<path d="M436.367 359.149L412.613 353.196L410.515 361.567L434.269 367.52L436.367 359.149Z" fill="white"/>
<path d="M560.389 390.211L455.43 363.905L453.332 372.276L558.291 398.582L560.389 390.211Z" fill="white"/>
<path d="M631.938 427.051L408.156 370.966L406.058 379.337L629.84 435.422L631.938 427.051Z" fill="white"/>
<path opacity="0.5" d="M438.982 402.896C439.332 395.981 445.381 391.094 453.605 391.094H616.19C625.927 391.094 635.313 397.898 637.157 406.307L685.967 652.223C687.811 660.632 681.394 667.454 671.658 667.454H263.968C254.213 667.454 244.827 660.632 242.983 652.223L202.839 445.713C200.995 437.305 207.412 430.482 217.167 430.482H404.85C424.119 430.482 438.208 419.049 438.982 402.896Z" fill="#407BFF"/>
</svg>
