<svg width="251" height="301" viewBox="0 0 251 301" fill="none" xmlns="http://www.w3.org/2000/svg">
<path d="M125.5 0.5C99.5367 0.5 74.6367 10.6425 56.2779 28.6964C37.919 46.7502 27.6052 71.2365 27.6052 96.7685V145.288C27.6072 147.421 27.1045 149.526 26.1367 151.435L2.12453 198.648C0.951564 200.955 0.397698 203.518 0.515541 206.094C0.633385 208.67 1.41902 211.174 2.79784 213.368C4.17666 215.562 6.10287 217.372 8.39354 218.628C10.6842 219.884 13.2633 220.543 15.8858 220.542H235.114C237.737 220.543 240.316 219.884 242.606 218.628C244.897 217.372 246.823 215.562 248.202 213.368C249.581 211.174 250.367 208.67 250.484 206.094C250.602 203.518 250.048 200.955 248.875 198.648L224.877 151.435C223.905 149.527 223.397 147.422 223.395 145.288V96.7685C223.395 71.2365 213.081 46.7502 194.722 28.6964C176.363 10.6425 151.463 0.5 125.5 0.5ZM125.5 261.8C116.82 261.805 108.353 259.162 101.264 254.235C94.1759 249.309 88.8158 242.342 85.9225 234.295H165.077C162.184 242.342 156.824 249.309 149.736 254.235C142.647 259.162 134.18 261.805 125.5 261.8Z" fill="#153CF5"/>
</svg>
