<svg width="301" height="281" viewBox="0 0 301 281" fill="none" xmlns="http://www.w3.org/2000/svg">
<path d="M240.5 0.5C256.413 0.5 271.674 6.71065 282.926 17.7657C294.179 28.8207 300.5 43.8146 300.5 59.4488V177.346C300.5 192.98 294.179 207.974 282.926 219.029C271.674 230.084 256.413 236.295 240.5 236.295H169.64L98.21 278.399C96.0588 279.668 93.6182 280.385 91.1116 280.487C88.605 280.589 86.1123 280.072 83.8619 278.983C81.6114 277.893 79.675 276.267 78.2299 274.252C76.7848 272.237 75.8771 269.898 75.59 267.449L75.5 265.769V236.295H60.5C45.1064 236.295 30.3016 230.482 19.1478 220.059C7.99407 209.635 1.34468 195.399 0.575002 180.294L0.5 177.346V59.4488C0.5 43.8146 6.82141 28.8207 18.0736 17.7657C29.3258 6.71065 44.587 0.5 60.5 0.5H240.5ZM180.5 133.135H90.5C86.5218 133.135 82.7064 134.687 79.8934 137.451C77.0804 140.215 75.5 143.963 75.5 147.872C75.5 151.78 77.0804 155.529 79.8934 158.293C82.7064 161.056 86.5218 162.609 90.5 162.609H180.5C184.478 162.609 188.294 161.056 191.107 158.293C193.92 155.529 195.5 151.78 195.5 147.872C195.5 143.963 193.92 140.215 191.107 137.451C188.294 134.687 184.478 133.135 180.5 133.135ZM210.5 74.1859H90.5C86.5218 74.1859 82.7064 75.7386 79.8934 78.5024C77.0804 81.2661 75.5 85.0146 75.5 88.9231C75.5 92.8317 77.0804 96.5801 79.8934 99.3439C82.7064 102.108 86.5218 103.66 90.5 103.66H210.5C214.478 103.66 218.294 102.108 221.107 99.3439C223.92 96.5801 225.5 92.8317 225.5 88.9231C225.5 85.0146 223.92 81.2661 221.107 78.5024C218.294 75.7386 214.478 74.1859 210.5 74.1859Z" fill="#153CF5"/>
</svg>
