<svg width="269" height="267" viewBox="0 0 269 267" fill="none" xmlns="http://www.w3.org/2000/svg">
<path d="M31.5557 0.46875C14.4572 0.46875 0.555664 14.4824 0.555664 31.7188V219.219C0.555664 236.455 14.4572 250.469 31.5557 250.469H102.371L107.651 223.857C109.734 213.262 114.917 203.545 122.473 195.928L186.507 131.377V83.7695C186.507 75.4688 183.262 67.5098 177.449 61.6504L125.863 9.59961C120.051 3.74023 112.156 0.46875 103.97 0.46875H31.5557ZM158.22 86.4062H112.931C106.488 86.4062 101.306 81.1816 101.306 74.6875V29.0332L158.22 86.4062ZM130.465 228.447L124.701 257.549C124.604 257.988 124.556 258.477 124.556 258.965C124.556 262.871 127.704 266.094 131.628 266.094C132.112 266.094 132.548 266.045 133.032 265.947L161.901 260.137C167.907 258.916 173.429 255.937 177.74 251.592L235.332 193.535L196.582 154.473L138.99 212.529C134.679 216.875 131.724 222.441 130.513 228.496L130.465 228.447ZM260.181 168.389C270.885 157.598 270.885 140.117 260.181 129.326C249.476 118.535 232.135 118.535 221.431 129.326L207.481 143.389L246.231 182.451L260.181 168.389Z" fill="#153CF5"/>
</svg>
