<svg width="241" height="301" viewBox="0 0 241 301" fill="none" xmlns="http://www.w3.org/2000/svg">
<path fill-rule="evenodd" clip-rule="evenodd" d="M155.339 4.34615C155.339 3.32609 154.931 2.34781 154.205 1.62651C153.479 0.905219 152.494 0.5 151.468 0.5H43.0806C31.7876 0.5 20.957 4.95741 12.9716 12.8916C4.98616 20.8259 0.5 31.587 0.5 42.8077V258.192C0.5 269.413 4.98616 280.174 12.9716 288.108C20.957 296.043 31.7876 300.5 43.0806 300.5H197.919C209.212 300.5 220.043 296.043 228.028 288.108C236.014 280.174 240.5 269.413 240.5 258.192V106.608C240.5 105.588 240.092 104.609 239.366 103.888C238.64 103.167 237.656 102.762 236.629 102.762H166.952C163.872 102.762 160.918 101.546 158.74 99.382C156.562 97.2181 155.339 94.2833 155.339 91.2231V4.34615ZM166.952 154.346C170.032 154.346 172.985 155.562 175.163 157.726C177.341 159.89 178.565 162.824 178.565 165.885C178.565 168.945 177.341 171.88 175.163 174.044C172.985 176.207 170.032 177.423 166.952 177.423H74.0484C70.9685 177.423 68.0147 176.207 65.8368 174.044C63.659 171.88 62.4355 168.945 62.4355 165.885C62.4355 162.824 63.659 159.89 65.8368 157.726C68.0147 155.562 70.9685 154.346 74.0484 154.346H166.952ZM166.952 215.885C170.032 215.885 172.985 217.1 175.163 219.264C177.341 221.428 178.565 224.363 178.565 227.423C178.565 230.483 177.341 233.418 175.163 235.582C172.985 237.746 170.032 238.962 166.952 238.962H74.0484C70.9685 238.962 68.0147 237.746 65.8368 235.582C63.659 233.418 62.4355 230.483 62.4355 227.423C62.4355 224.363 63.659 221.428 65.8368 219.264C68.0147 217.1 70.9685 215.885 74.0484 215.885H166.952Z" fill="#153CF5"/>
<path d="M178.565 9.33077C178.565 6.5 181.553 4.7 183.767 6.46923C185.646 7.97692 187.313 9.73077 188.768 11.7308L235.421 76.3C236.474 77.7769 235.328 79.6846 233.501 79.6846H182.435C181.409 79.6846 180.424 79.2794 179.698 78.5581C178.972 77.8368 178.565 76.8585 178.565 75.8385V9.33077Z" fill="#153CF5"/>
</svg>
