<svg width="225" height="220" viewBox="0 0 225 220" fill="none" xmlns="http://www.w3.org/2000/svg">
<path d="M112.5 0C97.7263 0 83.0972 2.91587 69.4481 8.58113C55.799 14.2464 43.3971 22.5501 32.9505 33.0181C11.8526 54.1593 0 82.8329 0 112.731C0 162.558 32.2875 204.832 76.95 219.825C82.575 220.727 84.375 217.233 84.375 214.189V195.137C53.2125 201.901 46.575 180.031 46.575 180.031C41.4 166.955 34.0875 163.46 34.0875 163.46C23.85 156.471 34.875 156.696 34.875 156.696C46.125 157.485 52.0875 168.307 52.0875 168.307C61.875 185.442 78.4125 180.37 84.825 177.664C85.8375 170.336 88.7625 165.376 91.9125 162.558C66.9375 159.74 40.725 150.045 40.725 107.094C40.725 94.5813 45 84.5482 52.3125 76.5443C51.1875 73.7261 47.25 62.002 53.4375 46.7834C53.4375 46.7834 62.8875 43.7396 84.375 58.2819C93.2625 55.8018 102.938 54.5618 112.5 54.5618C122.062 54.5618 131.737 55.8018 140.625 58.2819C162.113 43.7396 171.562 46.7834 171.562 46.7834C177.75 62.002 173.812 73.7261 172.688 76.5443C180 84.5482 184.275 94.5813 184.275 107.094C184.275 150.158 157.95 159.627 132.863 162.445C136.913 165.94 140.625 172.817 140.625 183.301V214.189C140.625 217.233 142.425 220.84 148.162 219.825C192.825 204.719 225 162.558 225 112.731C225 97.9269 222.09 83.2678 216.436 69.5907C210.783 55.9135 202.496 43.4862 192.05 33.0181C181.603 22.5501 169.201 14.2464 155.552 8.58113C141.903 2.91587 127.274 0 112.5 0Z" fill="#153CF5"/>
</svg>
