<svg width="271" height="301" viewBox="0 0 271 301" fill="none" xmlns="http://www.w3.org/2000/svg">
<path d="M0.5 281V111.511C0.5 106.519 1.60571 101.793 3.81714 97.3346C6.02857 92.8757 9.07571 89.2033 12.9586 86.3174L116.812 6.79835C122.251 2.59946 128.461 0.5 135.442 0.5C142.424 0.5 148.672 2.59946 154.188 6.79835L258.041 86.2979C261.937 89.1838 264.984 92.8627 267.183 97.3346C269.394 101.793 270.5 106.519 270.5 111.511V281C270.5 286.226 268.578 290.783 264.734 294.67C260.889 298.557 256.383 300.5 251.214 300.5H185.951C181.529 300.5 177.826 298.992 174.843 295.976C171.86 292.947 170.369 289.203 170.369 284.744V191.751C170.369 187.292 168.877 183.555 165.894 180.539C162.899 177.51 159.196 175.996 154.786 175.996H116.214C111.804 175.996 108.108 177.51 105.125 180.539C102.129 183.555 100.631 187.292 100.631 191.751V284.764C100.631 289.223 99.14 292.96 96.1571 295.976C93.1743 298.992 89.4779 300.5 85.0679 300.5H19.7857C14.6171 300.5 10.1107 298.557 6.26642 294.67C2.42214 290.783 0.5 286.226 0.5 281Z" fill="#153CF5"/>
</svg>
