<svg width="212" height="212" viewBox="0 0 212 212" fill="none" xmlns="http://www.w3.org/2000/svg">
<path d="M106.004 0.399933C47.6823 0.399933 0.404297 47.6779 0.404297 106C0.404297 164.322 47.6823 211.6 106.004 211.6C164.326 211.6 211.604 164.322 211.604 106C211.604 47.6779 164.326 0.399933 106.004 0.399933ZM80.1543 149.769H58.7703V80.9529H80.1543V149.769ZM69.3303 72.5049C62.5763 72.5049 58.2093 67.7199 58.2093 61.8019C58.2093 55.7629 62.7083 51.1209 69.6053 51.1209C76.5023 51.1209 80.7263 55.7629 80.8583 61.8019C80.8583 67.7199 76.5023 72.5049 69.3303 72.5049ZM158.254 149.769H136.87V111.632C136.87 102.755 133.768 96.7269 126.035 96.7269C120.128 96.7269 116.619 100.808 115.068 104.735C114.496 106.132 114.353 108.112 114.353 110.081V149.758H92.9583V102.898C92.9583 94.3069 92.6833 87.1239 92.3973 80.9419H110.976L111.955 90.5009H112.384C115.2 86.0129 122.097 79.3909 133.636 79.3909C147.705 79.3909 158.254 88.8179 158.254 109.08V149.769Z" fill="#153CF5"/>
</svg>
