<svg width="176" height="251" viewBox="0 0 176 251" fill="none" xmlns="http://www.w3.org/2000/svg">
<path d="M87.875 119C79.587 119 71.6384 115.708 65.7779 109.847C59.9174 103.987 56.625 96.038 56.625 87.75C56.625 79.462 59.9174 71.5134 65.7779 65.6529C71.6384 59.7924 79.587 56.5 87.875 56.5C96.163 56.5 104.112 59.7924 109.972 65.6529C115.833 71.5134 119.125 79.462 119.125 87.75C119.125 91.8538 118.317 95.9174 116.746 99.7089C115.176 103.5 112.874 106.945 109.972 109.847C107.07 112.749 103.625 115.051 99.8339 116.621C96.0424 118.192 91.9788 119 87.875 119ZM87.875 0.25C64.6686 0.25 42.4126 9.46872 26.0032 25.8782C9.59372 42.2876 0.375 64.5436 0.375 87.75C0.375 153.375 87.875 250.25 87.875 250.25C87.875 250.25 175.375 153.375 175.375 87.75C175.375 64.5436 166.156 42.2876 149.747 25.8782C133.337 9.46872 111.081 0.25 87.875 0.25Z" fill="#153CF5"/>
</svg>
