<svg width="200" height="200" viewBox="0 0 200 200" fill="none" xmlns="http://www.w3.org/2000/svg">
<path d="M167.537 6.20949C163.56 2.23356 158.166 0 152.542 0C146.918 0 141.524 2.23356 137.547 6.20949L120.101 23.6639L176.34 79.8976L193.785 62.4644C195.755 60.4949 197.318 58.1566 198.385 55.5829C199.451 53.0092 200 50.2507 200 47.4649C200 44.679 199.451 41.9205 198.385 39.3468C197.318 36.7732 195.755 34.4348 193.785 32.4653L167.537 6.20949ZM161.344 94.8918L105.106 38.6581L11.411 132.346L0 200L67.6597 188.579L161.344 94.8918Z" fill="#153CF5"/>
</svg>
