<svg width="301" height="191" viewBox="0 0 301 191" fill="none" xmlns="http://www.w3.org/2000/svg">
<path d="M205.045 81.9286C227.682 81.9286 245.818 63.7429 245.818 41.2143C245.818 18.6857 227.682 0.5 205.045 0.5C182.409 0.5 164.136 18.6857 164.136 41.2143C164.136 63.7429 182.409 81.9286 205.045 81.9286ZM95.9545 81.9286C118.591 81.9286 136.727 63.7429 136.727 41.2143C136.727 18.6857 118.591 0.5 95.9545 0.5C73.3182 0.5 55.0455 18.6857 55.0455 41.2143C55.0455 63.7429 73.3182 81.9286 95.9545 81.9286ZM95.9545 109.071C64.1818 109.071 0.5 124.95 0.5 156.571V176.929C0.5 184.393 6.63636 190.5 14.1364 190.5H177.773C185.273 190.5 191.409 184.393 191.409 176.929V156.571C191.409 124.95 127.727 109.071 95.9545 109.071ZM205.045 109.071C201.091 109.071 196.591 109.343 191.818 109.75C192.091 109.886 192.227 110.157 192.364 110.293C207.909 121.557 218.682 136.621 218.682 156.571V176.929C218.682 181.679 217.727 186.293 216.227 190.5H286.864C294.364 190.5 300.5 184.393 300.5 176.929V156.571C300.5 124.95 236.818 109.071 205.045 109.071Z" fill="#153CF5"/>
</svg>
