<svg width="263" height="292" viewBox="0 0 263 292" fill="none" xmlns="http://www.w3.org/2000/svg">
<path d="M131.625 0.25C110.352 0.25 89.9511 8.7005 74.9091 23.7425C59.8672 38.7845 51.4167 59.1858 51.4167 80.4583C51.4167 101.731 59.8672 122.132 74.9091 137.174C89.9511 152.216 110.352 160.667 131.625 160.667C152.898 160.667 173.299 152.216 188.341 137.174C203.383 122.132 211.833 101.731 211.833 80.4583C211.833 59.1858 203.383 38.7845 188.341 23.7425C173.299 8.7005 152.898 0.25 131.625 0.25ZM73.2917 175.25C53.953 175.25 35.4063 182.932 21.7318 196.607C8.05727 210.281 0.375 228.828 0.375 248.167V291.917H262.875V248.167C262.875 228.828 255.193 210.281 241.518 196.607C227.844 182.932 209.297 175.25 189.958 175.25H169.804L131.625 251.608L93.4458 175.25H73.2917Z" fill="#153CF5"/>
</svg>
