<svg width="291" height="301" viewBox="0 0 291 301" fill="none" xmlns="http://www.w3.org/2000/svg">
<path d="M127.603 300.5C120.749 300.5 114.85 298.25 109.905 293.75C104.96 289.25 101.975 283.75 100.949 277.25L97.5221 252.5C94.222 251.25 91.1148 249.75 88.2006 248C85.2864 246.25 82.428 244.375 79.6255 242.375L56.0173 252.125C49.671 254.875 43.3248 255.125 36.9785 252.875C30.6322 250.625 25.6821 246.625 22.1282 240.875L4.23162 210.125C0.677694 204.375 -0.337709 198.25 1.1854 191.75C2.70851 185.25 6.1355 179.875 11.4664 175.625L31.6476 160.625C31.3937 158.875 31.2668 157.185 31.2668 155.555V145.43C31.2668 143.81 31.3937 142.125 31.6476 140.375L11.4664 125.375C6.1355 121.125 2.70851 115.75 1.1854 109.25C-0.337709 102.75 0.677694 96.625 4.23162 90.875L22.1282 60.125C25.6821 54.375 30.6322 50.375 36.9785 48.125C43.3248 45.875 49.671 46.125 56.0173 48.875L79.6255 58.625C82.4179 56.625 85.3372 54.75 88.3834 53C91.4296 51.25 94.4758 49.75 97.5221 48.5L100.949 23.75C101.964 17.25 104.95 11.75 109.905 7.25C114.86 2.75 120.76 0.5 127.603 0.5H163.397C170.251 0.5 176.155 2.75 181.11 7.25C186.065 11.75 189.046 17.25 190.051 23.75L193.478 48.5C196.778 49.75 199.89 51.25 202.815 53C205.739 54.75 208.592 56.625 211.374 58.625L234.983 48.875C241.329 46.125 247.675 45.875 254.022 48.125C260.368 50.375 265.318 54.375 268.872 60.125L286.768 90.875C290.322 96.625 291.338 102.75 289.815 109.25C288.291 115.75 284.864 121.125 279.534 125.375L259.352 140.375C259.606 142.125 259.733 143.815 259.733 145.445V155.555C259.733 157.185 259.479 158.875 258.972 160.625L279.153 175.625C284.484 179.875 287.911 185.25 289.434 191.75C290.957 198.25 289.942 204.375 286.388 210.125L268.11 240.875C264.556 246.625 259.606 250.625 253.26 252.875C246.914 255.125 240.567 254.875 234.221 252.125L211.374 242.375C208.582 244.375 205.663 246.25 202.617 248C199.57 249.75 196.524 251.25 193.478 252.5L190.051 277.25C189.036 283.75 186.055 289.25 181.11 293.75C176.165 298.25 170.261 300.5 163.397 300.5H127.603ZM146.262 203C160.985 203 173.551 197.875 183.958 187.625C194.366 177.375 199.57 165 199.57 150.5C199.57 136 194.366 123.625 183.958 113.375C173.551 103.125 160.985 98 146.262 98C131.284 98 118.653 103.125 108.367 113.375C98.0805 123.625 92.9426 136 92.9527 150.5C92.9629 165 98.1059 177.375 108.382 187.625C118.658 197.875 131.284 203 146.262 203Z" fill="#153CF5"/>
</svg>
