<svg width="320" height="321" viewBox="0 0 320 321" fill="none" xmlns="http://www.w3.org/2000/svg">
<path d="M160 0C248.368 0 320 71.8323 320 160.447C320 249.063 248.368 320.895 160 320.895C71.632 320.895 0 249.063 0 160.447C0 71.8323 71.632 0 160 0ZM160 64.179C155.757 64.179 151.687 65.8694 148.686 68.8784C145.686 71.8873 144 75.9684 144 80.2237V160.447C144.001 164.702 145.687 168.783 148.688 171.791L196.688 219.925C199.706 222.848 203.747 224.465 207.942 224.429C212.138 224.392 216.151 222.705 219.117 219.73C222.084 216.755 223.766 212.731 223.803 208.524C223.839 204.317 222.227 200.264 219.312 197.238L176 153.805V80.2237C176 75.9684 174.314 71.8873 171.314 68.8784C168.313 65.8694 164.243 64.179 160 64.179Z" fill="#153CF5"/>
</svg>
