<svg width="211" height="251" viewBox="0 0 211 251" fill="none" xmlns="http://www.w3.org/2000/svg">
<path d="M146.749 19.359L150.478 45.3718H200.955C203.486 45.3718 205.914 46.3848 207.704 48.1881C209.494 49.9913 210.5 52.437 210.5 54.9872C210.5 57.5373 209.494 59.983 207.704 61.7863C205.914 63.5895 203.486 64.6026 200.955 64.6026H191.167L180.056 195.179C179.382 203.128 178.835 209.667 177.956 214.949C177.065 220.449 175.704 225.372 173.044 229.936C168.867 237.104 162.657 242.851 155.213 246.436C150.478 248.705 145.489 249.641 139.965 250.077C134.658 250.5 128.155 250.5 120.238 250.5H90.7618C82.8455 250.5 76.3418 250.5 71.0345 250.077C65.5109 249.641 60.5218 248.705 55.7873 246.436C48.3429 242.851 42.1332 237.104 37.9564 229.936C35.2836 225.372 33.9473 220.449 33.0436 214.949C32.1655 209.654 31.6182 203.128 30.9436 195.179L19.8327 64.6026H10.0455C7.51384 64.6026 5.08592 63.5895 3.2958 61.7863C1.50568 59.983 0.5 57.5373 0.5 54.9872C0.5 52.437 1.50568 49.9913 3.2958 48.1881C5.08592 46.3848 7.51384 45.3718 10.0455 45.3718H60.5218L64.2509 19.359L64.3909 18.5769C66.7073 8.44872 75.3364 0.5 86.1545 0.5H124.845C135.664 0.5 144.293 8.44872 146.609 18.5769L146.749 19.359ZM79.8036 45.3718H131.184L127.925 22.6026C127.315 20.4615 125.762 19.7308 124.833 19.7308H86.1673C85.2382 19.7308 83.6855 20.4615 83.0745 22.6026L79.8036 45.3718ZM95.9545 106.269C95.9545 103.719 94.9489 101.273 93.1587 99.4701C91.3686 97.6669 88.9407 96.6538 86.4091 96.6538C83.8775 96.6538 81.4496 97.6669 79.6594 99.4701C77.8693 101.273 76.8636 103.719 76.8636 106.269V170.372C76.8636 172.922 77.8693 175.368 79.6594 177.171C81.4496 178.974 83.8775 179.987 86.4091 179.987C88.9407 179.987 91.3686 178.974 93.1587 177.171C94.9489 175.368 95.9545 172.922 95.9545 170.372V106.269ZM134.136 106.269C134.136 103.719 133.131 101.273 131.341 99.4701C129.55 97.6669 127.123 96.6538 124.591 96.6538C122.059 96.6538 119.631 97.6669 117.841 99.4701C116.051 101.273 115.045 103.719 115.045 106.269V170.372C115.045 172.922 116.051 175.368 117.841 177.171C119.631 178.974 122.059 179.987 124.591 179.987C127.123 179.987 129.55 178.974 131.341 177.171C133.131 175.368 134.136 172.922 134.136 170.372V106.269Z" fill="#153CF5"/>
</svg>
