<svg width="220" height="220" viewBox="0 0 220 220" fill="none" xmlns="http://www.w3.org/2000/svg">
<path d="M110 0C170.814 0 220 49.1857 220 110C220 170.814 170.814 220 110 220C49.1857 220 0 170.814 0 110C0 49.1857 49.1857 0 110 0ZM89.8857 167.986C138.6 167.986 165.314 127.6 165.314 92.5571V89.1C170.5 85.3286 175.057 80.6143 178.514 75.2714C173.8 77.3143 168.614 78.7286 163.271 79.5143C168.771 76.2143 173.014 71.0286 174.9 64.9C169.714 67.8857 164.057 70.0857 158.086 71.3429C153.214 66.1571 146.3 63.0143 138.757 63.0143C124.143 63.0143 112.2 74.9571 112.2 89.5714C112.2 91.6143 112.357 93.6571 112.986 95.5429C90.9857 94.4429 71.3429 83.9143 58.3 67.8857C56.1 71.8143 54.6857 76.3714 54.6857 81.2429C54.6857 90.3571 59.4 98.5286 66.4714 103.243C62.0714 103.243 57.9857 101.986 54.5286 99.9429V100.257C54.5286 113.143 63.6429 123.829 75.7429 126.343C73.5429 126.971 71.1857 127.286 68.8286 127.286C67.1 127.286 65.5286 127.129 63.8 126.814C67.1 137.343 77 145.043 88.4714 145.2C79.3571 152.271 67.8857 156.514 55.4714 156.514C53.2714 156.514 51.2286 156.514 49.1857 156.2C60.8143 163.743 74.8 168.143 89.7286 168.143" fill="#153CF5"/>
</svg>
