<svg width="331" height="330" viewBox="0 0 331 330" fill="none" xmlns="http://www.w3.org/2000/svg">
<path fill-rule="evenodd" clip-rule="evenodd" d="M143.124 9.42997C148.694 3.88107 156.148 0.616009 164.013 0.278955C171.878 -0.0580986 179.585 2.55733 185.612 7.60925L187.626 9.44566L217.525 39.2521H259.793C267.73 39.2536 275.374 42.2464 281.193 47.6311C287.011 53.0159 290.576 60.3947 291.171 68.2895L291.265 70.6438V112.803L321.164 142.625C326.732 148.182 330.008 155.619 330.346 163.468C330.684 171.317 328.059 179.007 322.99 185.02L321.148 187.013L291.25 216.835V258.994C291.252 266.914 288.253 274.542 282.854 280.349C277.455 286.156 270.055 289.714 262.137 290.308L259.793 290.386H217.541L187.642 320.208C182.071 325.761 174.614 329.029 166.745 329.366C158.876 329.703 151.166 327.085 145.138 322.029L143.14 320.208L113.241 290.386H70.9573C63.0171 290.388 55.3695 287.397 49.5473 282.012C43.7252 276.627 40.1589 269.246 39.5634 261.349L39.4847 258.994V216.835L9.58579 187.013C4.0182 181.456 0.741963 174.019 0.404008 166.17C0.0660536 158.321 2.69095 150.631 7.76038 144.618L9.58579 142.625L39.4847 112.803V70.6438C39.4862 62.7268 42.4868 55.1027 47.8853 49.2988C53.2839 43.495 60.6818 39.9401 68.5969 39.3463L70.9573 39.2521H113.225L143.124 9.42997ZM213.827 117.465L147.042 184.078L119.22 156.328C116.268 153.384 112.264 151.732 108.089 151.733C103.915 151.735 99.9122 153.39 96.9615 156.335C94.0108 159.281 92.354 163.274 92.3555 167.438C92.3569 171.602 94.0166 175.594 96.9694 178.537L134.799 216.27C136.407 217.874 138.315 219.147 140.416 220.015C142.517 220.883 144.768 221.33 147.042 221.33C149.316 221.33 151.568 220.883 153.668 220.015C155.769 219.147 157.678 217.874 159.285 216.27L236.078 139.659C238.945 136.698 240.531 132.733 240.495 128.618C240.459 124.503 238.804 120.566 235.886 117.656C232.969 114.746 229.022 113.095 224.896 113.059C220.77 113.023 216.795 114.605 213.827 117.465Z" fill="#153CF5"/>
</svg>
