<svg xmlns="http://www.w3.org/2000/svg" xmlns:xlink="http://www.w3.org/1999/xlink" viewBox="0 0 1158.86 152.3"><defs><style>.cls-1{fill:#153cf5;}.cls-2{fill:url(#linear-gradient);}.cls-3{fill:#0a172a;}</style><linearGradient id="linear-gradient" x1="102.31" y1="103.61" x2="45.93" y2="44.63" gradientUnits="userSpaceOnUse"><stop offset="0" stop-color="#153cf5"/><stop offset="0.7" stop-color="#0023a0"/></linearGradient></defs><g id="Layer_2" data-name="Layer 2"><g id="Layer_2-2" data-name="Layer 2"><path class="cls-1" d="M98.77,0h0L49.38,49.38V0H0V49.38H148.15V0Z"/><path class="cls-2" d="M49.38,98.77h0l49.39,49.38h0V49.38H49.38Z"/><path class="cls-3" d="M220.14,45.65H189.66V18.2h96.06V45.65H255.23V123.2H220.14Z"/><path class="cls-3" d="M350.55,39.65v30a46.28,46.28,0,0,0-7.44-.6c-10.11,0-17.25,4.65-17.25,17.7V123.2h-33.6V41.15h32V50C330.18,43.1,339.25,39.65,350.55,39.65Z"/><path class="cls-3" d="M439.77,79.1v44.1H408.54V112.4c-3.87,8.25-11.6,12.3-23.05,12.3-19.92,0-30.18-11.4-30.18-25.5,0-15.9,11.89-24.75,37.17-24.75H406c-1-6.3-5.8-9.6-15.31-9.6-7.29,0-15.47,2.4-20.82,6.45L359.17,49c9.52-6,23.94-9.3,36.58-9.3C423.71,39.65,439.77,51.8,439.77,79.1ZM406.16,96.5V90.8h-8.33c-7.13,0-10.26,2.4-10.26,6.9,0,3.75,3,6.6,8,6.6A10.64,10.64,0,0,0,406.16,96.5Z"/><path class="cls-3" d="M547.87,82.1c0,26.4-18,42.6-39.26,42.6-10.11,0-17.4-2.7-22.3-8.25v6.75h-32V11.9h33.6V46.7c4.91-4.8,11.75-7.05,20.67-7.05C529.87,39.65,547.87,55.7,547.87,82.1Zm-34,0c0-10.65-5.8-16-13.24-16s-13.23,5.4-13.23,16,5.8,16.2,13.23,16.2S513.82,92.75,513.82,82.1Z"/><path class="cls-3" d="M636.79,79.1v44.1H605.56V112.4c-3.86,8.25-11.6,12.3-23,12.3-19.92,0-30.18-11.4-30.18-25.5,0-15.9,11.89-24.75,37.17-24.75H603c-1-6.3-5.8-9.6-15.31-9.6-7.29,0-15.47,2.4-20.82,6.45L556.19,49c9.52-6,23.95-9.3,36.58-9.3C620.73,39.65,636.79,51.8,636.79,79.1ZM603.18,96.5V90.8h-8.32c-7.14,0-10.26,2.4-10.26,6.9,0,3.75,3,6.6,8,6.6A10.64,10.64,0,0,0,603.18,96.5Z"/><path class="cls-3" d="M755,18.2v105H719.91V84.5H687.49v38.7H652.4V18.2h35.09V55.4h32.42V18.2Z"/><path class="cls-3" d="M851.35,79.1v44.1H820.13V112.4c-3.87,8.25-11.6,12.3-23,12.3-19.93,0-30.19-11.4-30.19-25.5,0-15.9,11.9-24.75,37.18-24.75H817.6c-1-6.3-5.8-9.6-15.32-9.6-7.28,0-15.46,2.4-20.81,6.45L770.76,49c9.52-6,23.94-9.3,36.58-9.3C835.29,39.65,851.35,51.8,851.35,79.1Zm-33.6,17.4V90.8h-8.33c-7.14,0-10.26,2.4-10.26,6.9,0,3.75,3,6.6,8,6.6A10.65,10.65,0,0,0,817.75,96.5Z"/><path class="cls-3" d="M955.74,76.4v46.8H922.13V82.25c0-10.2-3.86-14.1-10-14.1-6.84,0-12.64,4.35-12.64,16.5V123.2H865.92V41.15h32v8.1c6.4-6.45,15-9.6,24.54-9.6C941.17,39.65,955.74,50.6,955.74,76.4Z"/><path class="cls-3" d="M1050.75,79.1v44.1h-31.22V112.4c-3.87,8.25-11.6,12.3-23,12.3-19.93,0-30.19-11.4-30.19-25.5,0-15.9,11.9-24.75,37.18-24.75H1017c-1-6.3-5.8-9.6-15.32-9.6-7.28,0-15.46,2.4-20.81,6.45L970.16,49c9.52-6,23.94-9.3,36.58-9.3C1034.69,39.65,1050.75,51.8,1050.75,79.1Zm-33.6,17.4V90.8h-8.33c-7.14,0-10.26,2.4-10.26,6.9,0,3.75,3,6.6,8,6.6A10.65,10.65,0,0,0,1017.15,96.5Z"/><path class="cls-3" d="M1158.86,82.25c0,26.4-18,42.45-39.26,42.45-8.92,0-15.76-2.25-20.67-7V152.3h-33.61V41.15h32V47.9c4.91-5.55,12.2-8.25,22.31-8.25C1140.86,39.65,1158.86,55.85,1158.86,82.25Zm-34.06,0c0-10.65-5.8-16.2-13.23-16.2s-13.23,5.55-13.23,16.2,5.8,16,13.23,16S1124.8,92.9,1124.8,82.25Z"/></g></g></svg>