<svg width="189" height="227" viewBox="0 0 189 227" fill="none" xmlns="http://www.w3.org/2000/svg">
<path d="M14.9746 142.5L10.4746 134.73L42.9496 115.98L58.2721 142.5H14.9746ZM118.895 142.5H75.5896L48.4471 95.49L80.9221 76.74L118.895 142.5ZM179.517 142.5H136.212L86.4121 56.25L118.887 37.5L179.517 142.5Z" fill="black"/>
<path d="M29.6305 188V185.6C28.4971 186.533 27.2138 187.25 25.7805 187.75C24.3805 188.25 22.8471 188.5 21.1805 188.5C19.3138 188.5 17.5638 188.133 15.9305 187.4C14.2971 186.633 12.8638 185.617 11.6305 184.35C10.4305 183.05 9.48047 181.533 8.78047 179.8C8.08047 178.067 7.73047 176.2 7.73047 174.2C7.73047 172.233 8.08047 170.4 8.78047 168.7C9.48047 166.967 10.4305 165.467 11.6305 164.2C12.8638 162.9 14.2971 161.883 15.9305 161.15C17.5638 160.383 19.3138 160 21.1805 160C22.8471 160 24.3805 160.25 25.7805 160.75C27.2138 161.25 28.4971 161.95 29.6305 162.85V160.5H37.2305V188H29.6305ZM29.4805 174.25C29.4805 173.217 29.2971 172.25 28.9305 171.35C28.5638 170.45 28.0471 169.667 27.3805 169C26.7471 168.3 26.0138 167.75 25.1805 167.35C24.3471 166.95 23.4471 166.75 22.4805 166.75C21.5471 166.75 20.6471 166.95 19.7805 167.35C18.9471 167.75 18.1971 168.3 17.5305 169C16.8971 169.667 16.3971 170.45 16.0305 171.35C15.6638 172.25 15.4805 173.217 15.4805 174.25C15.4805 175.283 15.6638 176.267 16.0305 177.2C16.3971 178.133 16.8971 178.95 17.5305 179.65C18.1638 180.317 18.8971 180.85 19.7305 181.25C20.5971 181.65 21.5138 181.85 22.4805 181.85C23.4471 181.85 24.3471 181.65 25.1805 181.25C26.0471 180.85 26.7971 180.317 27.4305 179.65C28.0638 178.95 28.5638 178.133 28.9305 177.2C29.2971 176.267 29.4805 175.283 29.4805 174.25ZM64.2008 185.9C63.0674 186.733 61.8174 187.383 60.4508 187.85C59.0841 188.283 57.6008 188.5 56.0008 188.5C54.1008 188.5 52.3174 188.133 50.6508 187.4C48.9841 186.633 47.5341 185.617 46.3008 184.35C45.0674 183.05 44.0841 181.533 43.3508 179.8C42.6508 178.067 42.3008 176.2 42.3008 174.2C42.3008 172.233 42.6508 170.4 43.3508 168.7C44.0841 166.967 45.0674 165.467 46.3008 164.2C47.5341 162.9 48.9841 161.883 50.6508 161.15C52.3174 160.383 54.1008 160 56.0008 160C57.6008 160 59.0841 160.217 60.4508 160.65C61.8174 161.083 63.0674 161.717 64.2008 162.55V150.5H71.8008V188H64.2008V185.9ZM50.0508 174.2C50.0508 175.233 50.2341 176.217 50.6008 177.15C50.9674 178.05 51.4674 178.85 52.1008 179.55C52.7341 180.217 53.4674 180.75 54.3008 181.15C55.1674 181.55 56.0841 181.75 57.0508 181.75C58.0174 181.75 58.9174 181.55 59.7508 181.15C60.6174 180.75 61.3674 180.217 62.0008 179.55C62.6341 178.85 63.1341 178.05 63.5008 177.15C63.8674 176.217 64.0508 175.233 64.0508 174.2C64.0508 173.2 63.8674 172.25 63.5008 171.35C63.1341 170.417 62.6174 169.617 61.9508 168.95C61.3174 168.283 60.5841 167.75 59.7508 167.35C58.9174 166.95 58.0174 166.75 57.0508 166.75C56.1174 166.75 55.2174 166.95 54.3508 167.35C53.5174 167.75 52.7674 168.283 52.1008 168.95C51.4674 169.617 50.9674 170.417 50.6008 171.35C50.2341 172.25 50.0508 173.2 50.0508 174.2ZM77.7723 188V160.5H85.3723V188H77.7723ZM77.1723 153.5C77.1723 152.333 77.5889 151.333 78.4223 150.5C79.2556 149.667 80.2723 149.25 81.4723 149.25C82.6723 149.25 83.6889 149.667 84.5223 150.5C85.3556 151.333 85.7723 152.333 85.7723 153.5C85.7723 154.667 85.3556 155.667 84.5223 156.5C83.6889 157.333 82.6723 157.75 81.4723 157.75C80.2723 157.75 79.2556 157.333 78.4223 156.5C77.5889 155.667 77.1723 154.667 77.1723 153.5ZM112.052 185.9C110.919 186.733 109.669 187.383 108.302 187.85C106.936 188.283 105.452 188.5 103.852 188.5C101.952 188.5 100.169 188.133 98.5023 187.4C96.8357 186.633 95.3857 185.617 94.1523 184.35C92.919 183.05 91.9357 181.533 91.2023 179.8C90.5023 178.067 90.1523 176.2 90.1523 174.2C90.1523 172.233 90.5023 170.4 91.2023 168.7C91.9357 166.967 92.919 165.467 94.1523 164.2C95.3857 162.9 96.8357 161.883 98.5023 161.15C100.169 160.383 101.952 160 103.852 160C105.452 160 106.936 160.217 108.302 160.65C109.669 161.083 110.919 161.717 112.052 162.55V150.5H119.652V188H112.052V185.9ZM97.9023 174.2C97.9023 175.233 98.0857 176.217 98.4523 177.15C98.819 178.05 99.319 178.85 99.9523 179.55C100.586 180.217 101.319 180.75 102.152 181.15C103.019 181.55 103.936 181.75 104.902 181.75C105.869 181.75 106.769 181.55 107.602 181.15C108.469 180.75 109.219 180.217 109.852 179.55C110.486 178.85 110.986 178.05 111.352 177.15C111.719 176.217 111.902 175.233 111.902 174.2C111.902 173.2 111.719 172.25 111.352 171.35C110.986 170.417 110.469 169.617 109.802 168.95C109.169 168.283 108.436 167.75 107.602 167.35C106.769 166.95 105.869 166.75 104.902 166.75C103.969 166.75 103.069 166.95 102.202 167.35C101.369 167.75 100.619 168.283 99.9523 168.95C99.319 169.617 98.819 170.417 98.4523 171.35C98.0857 172.25 97.9023 173.2 97.9023 174.2ZM146.671 188V185.6C145.538 186.533 144.255 187.25 142.821 187.75C141.421 188.25 139.888 188.5 138.221 188.5C136.355 188.5 134.605 188.133 132.971 187.4C131.338 186.633 129.905 185.617 128.671 184.35C127.471 183.05 126.521 181.533 125.821 179.8C125.121 178.067 124.771 176.2 124.771 174.2C124.771 172.233 125.121 170.4 125.821 168.7C126.521 166.967 127.471 165.467 128.671 164.2C129.905 162.9 131.338 161.883 132.971 161.15C134.605 160.383 136.355 160 138.221 160C139.888 160 141.421 160.25 142.821 160.75C144.255 161.25 145.538 161.95 146.671 162.85V160.5H154.271V188H146.671ZM146.521 174.25C146.521 173.217 146.338 172.25 145.971 171.35C145.605 170.45 145.088 169.667 144.421 169C143.788 168.3 143.055 167.75 142.221 167.35C141.388 166.95 140.488 166.75 139.521 166.75C138.588 166.75 137.688 166.95 136.821 167.35C135.988 167.75 135.238 168.3 134.571 169C133.938 169.667 133.438 170.45 133.071 171.35C132.705 172.25 132.521 173.217 132.521 174.25C132.521 175.283 132.705 176.267 133.071 177.2C133.438 178.133 133.938 178.95 134.571 179.65C135.205 180.317 135.938 180.85 136.771 181.25C137.638 181.65 138.555 181.85 139.521 181.85C140.488 181.85 141.388 181.65 142.221 181.25C143.088 180.85 143.838 180.317 144.471 179.65C145.105 178.95 145.605 178.133 145.971 177.2C146.338 176.267 146.521 175.283 146.521 174.25ZM168.243 188.5C167.943 188.5 167.476 188.483 166.843 188.45C166.243 188.45 165.543 188.417 164.743 188.35C163.976 188.283 163.143 188.183 162.243 188.05C161.376 187.917 160.526 187.75 159.693 187.55V180.45C160.626 180.95 161.843 181.367 163.343 181.7C164.876 182.033 166.426 182.2 167.993 182.2C169.426 182.2 170.56 182.05 171.393 181.75C172.226 181.417 172.643 180.933 172.643 180.3C172.643 179.833 172.443 179.433 172.043 179.1C171.643 178.767 171.126 178.483 170.493 178.25C169.893 177.983 169.243 177.75 168.543 177.55C167.843 177.317 167.193 177.083 166.593 176.85C165.126 176.283 163.926 175.683 162.993 175.05C162.093 174.383 161.393 173.717 160.893 173.05C160.393 172.383 160.043 171.717 159.843 171.05C159.676 170.35 159.593 169.683 159.593 169.05C159.593 167.75 159.876 166.55 160.443 165.45C161.043 164.35 161.86 163.4 162.893 162.6C163.926 161.767 165.16 161.133 166.593 160.7C168.026 160.233 169.61 160 171.343 160C173.01 160 174.56 160.133 175.993 160.4C177.46 160.633 178.66 160.933 179.593 161.3V168.55C179.126 168.25 178.56 168 177.893 167.8C177.26 167.6 176.593 167.433 175.893 167.3C175.226 167.167 174.543 167.083 173.843 167.05C173.176 166.983 172.56 166.95 171.993 166.95C170.726 166.95 169.81 167.1 169.243 167.4C168.71 167.667 168.41 168 168.343 168.4C168.31 168.667 168.443 168.917 168.743 169.15C169.043 169.35 169.41 169.55 169.843 169.75C170.276 169.917 170.743 170.083 171.243 170.25C171.743 170.383 172.176 170.517 172.543 170.65C174.443 171.35 175.96 172.067 177.093 172.8C178.226 173.5 179.093 174.217 179.693 174.95C180.326 175.65 180.743 176.35 180.943 177.05C181.143 177.75 181.243 178.433 181.243 179.1C181.243 180.5 180.926 181.783 180.293 182.95C179.66 184.083 178.76 185.067 177.593 185.9C176.46 186.733 175.093 187.383 173.493 187.85C171.893 188.283 170.143 188.5 168.243 188.5Z" fill="black"/>
</svg>
