<svg xmlns="http://www.w3.org/2000/svg" viewBox="0 0 1601.04 306.86"><defs><style>.cls-1{fill:#2d3540;}.cls-2{fill:#2fabe2;}.cls-3{fill:#31ade2;}.cls-4{fill:#2e3540;}.cls-5{fill:#2c333e;}.cls-6{fill:#f6f6f7;}.cls-7{fill:#d3e1ea;}.cls-8{fill:#f7f7f8;}.cls-9{fill:#f1f2f3;}.cls-10{fill:#92a6b4;}.cls-11{fill:#353a4d;}.cls-12{fill:#d1dfe8;}.cls-13{fill:#2c343f;}.cls-14{fill:#30a6dd;}.cls-15{fill:#30a4da;}</style></defs><g id="Layer_2" data-name="Layer 2"><g id="Layer_2-2" data-name="Layer 2"><path class="cls-1" d="M1460.66,263.82h-34.49V111.32h51.59c11.6,32.42,23.21,64.85,35.8,100.06,8-21.79,15-40.9,22-60,4-11,7.8-22.2,12.13-33.13,1-2.61,3.75-6.39,5.8-6.46,15.67-.54,31.36-.3,47.56-.3V264.05h-33.5V152.24l-1.63-.49c-1.38,3.22-3,6.37-4.11,9.67-11.06,31.46-22.36,62.84-32.84,94.49-2.38,7.17-5.93,8.64-12.67,8.49-16.74-.38-16.76-.09-22-15.8-10.69-32.22-21.36-64.44-33.65-96.56Z"/><path class="cls-1" d="M151.94,50.42c1.38-5.54,2.63-10.53,3.84-15.37-13-12.26-15-22.39-6.32-30.53a17.73,17.73,0,0,1,25.41,1.82c7.07,8.85,4.19,18.8-8,27.7,3.68,18.67,3.7,18.58,21.16,22.07A443,443,0,0,1,302.07,95c12.93,6.54,19.68,16.06,20.75,30.7,3,41-3,81-11.9,120.78-2.42,10.82-9.36,17.55-19.54,21.62-39.55,15.82-81.15,23.64-122.74,31.47-11.28,2.12-22.74,3.35-33.94,5.82-19.53,4.31-37.09-1.71-54.09-9.84-12.39-5.93-24.07-13.31-36.26-19.66-27-14.07-40.27-36.52-41.54-66.5-.95-22.26-2-44.51-2.78-66.77C-.49,128,5.55,116.25,16.44,106.37A275.68,275.68,0,0,1,95.58,55.62c10.24-4.28,22.18-5,33.46-6.17C136.13,48.68,143.45,50,151.94,50.42ZM301.58,190l.8-10.37q.93-24.46,1.86-48.94c.39-10-4.28-16-13.41-20.46A416.29,416.29,0,0,0,154.1,69.93C136,67.81,117.78,64.79,100,73.57c-26,12.86-50.6,27.63-71.54,47.77-4.2,4-8.28,10.19-8.76,15.69-1.07,12.18.19,24.57.5,36.87,0,3.54-.34,7.15.17,10.62,2.43,16.48,5.1,32.93,7.69,49.4,4.22,5.58,7.28,13.16,12.86,16.39,21.89,12.67,44.33,24.47,67.13,35.41,5.52,2.65,13.21.79,19.9,1,14.59-2.23,29.42-3.48,43.72-6.88,36.32-8.63,72.39-18.23,108.57-27.42,8.33-2.11,12.44-7.52,13.69-15.9C296.28,221,299,205.53,301.58,190Z"/><path class="cls-2" d="M514,186.85c-.08-47.58,34-80,84.16-80.22,50-.19,84.43,32.34,84.57,79.92S648.63,267.26,599,267.62C548.93,268,514.1,234.88,514,186.85Zm132.41,1.05c.48-29.41-18-49.38-46.2-49.94-29.78-.6-49.65,18.32-50.52,48.11-.83,28.32,19.37,49.68,47.7,50.43S646,217.34,646.44,187.9Z"/><path class="cls-2" d="M695.39,264.42V111.83c21.64,0,42.86-.87,64,.34a118.15,118.15,0,0,1,35.31,7.67c29.58,11.45,43.42,34.54,44.23,65.62.84,32.48-13.66,56.38-43.25,69.49-12,5.31-25.71,8.12-38.86,9.08C736.62,265.51,716.27,264.42,695.39,264.42Zm34.47-29.64c15.65-1.89,30.83-2.26,45.21-5.82,18.58-4.61,26.48-19.48,28-37.48,1.49-17.69-4.56-32.23-20.84-41.25s-33.89-8.34-52.37-7.21Z"/><path class="cls-1" d="M1260.63,262.71h-34.18V197.76h-65.76V262.3h-34.35V110.79h33.77v56.12h66.56V111.35h34Z"/><path class="cls-3" d="M886.41,202.84V233h74.1v31.65H851.67V112.1H956.76v30.84h-70v28.17h66.08v31.73Z"/><path class="cls-4" d="M1277.57,111.25h34.67c0,30.92-.09,61.32,0,91.72.07,16.76,8,28,22.15,32.15,18.87,5.5,37.89-6.43,39.31-26,1.29-17.95.71-36,.83-54,.1-14.38,0-28.76,0-43.61h34.51c0,4.7,0,9.47,0,14.24-.06,25.9-.07,51.79-.2,77.69-.21,41.52-28.08,67.13-69.68,64.1-40.82-3-61.6-25.33-61.63-66.38C1277.55,171.34,1277.57,141.57,1277.57,111.25Z"/><path class="cls-5" d="M1109.63,129.09c-8.73,6.94-16.91,13.44-25,19.83-25.73-16.76-49.8-14.78-65,5-16.43,21.42-13.61,54,6.19,71.45,17.06,15,40.36,13.06,59.63-5.64l27.25,19.89c-14,22.72-47.34,32.48-80.68,24-34.14-8.7-56.48-36-58.52-71.56-2.16-37.51,16.29-67.33,49.51-80C1055.48,99.64,1091.63,106.49,1109.63,129.09Z"/><path class="cls-2" d="M486.58,220.61l27,20.09c-15.16,23.47-48.73,32.71-82.84,23.33-33.74-9.28-56-37.67-57-72.79-1.09-38.14,17.79-67.53,50.84-79.14,33.33-11.7,69-4.67,85.51,17.53l-24.82,20c-25.47-16.6-49.37-15-64.59,4-16.61,20.71-14.47,54.24,4.58,71.75C442.87,241.5,464.76,240.05,486.58,220.61Z"/><path class="cls-6" d="M20.23,173.9c-.31-12.3-1.57-24.69-.5-36.87.48-5.5,4.56-11.65,8.76-15.69C49.43,101.2,74.05,86.43,100,73.57c17.75-8.78,36-5.76,54.07-3.64a416.29,416.29,0,0,1,136.73,40.34c9.13,4.5,13.8,10.45,13.41,20.46q-.94,24.47-1.86,48.94l-7.33-.19c.5-15.33,1-30.66,1.51-46,.3-8.57-3.41-13.53-11.62-17-49.59-21-101.59-31.6-154.91-37-8.75-.88-13.14,3.43-14.58,11-4.5,23.68-8.58,47.44-12.82,71.17l-13.14-1.73c3.71-24.41,7.43-48.83,11.27-74-23.71,10.87-47.06,22.43-65.62,41.3-3.88,3.94-5.67,10.72-6.67,16.5-1.71,9.89-2,20-2.94,30.06Z"/><path class="cls-7" d="M128,286.72c-6.69-.21-14.38,1.65-19.9-1C85.28,274.78,62.84,263,41,250.31c-5.58-3.23-8.64-10.81-12.86-16.39-.59-13.83-1.4-27.64-1.61-41.47,0-2.93,2.14-5.89,3.29-8.83C32,189,33.55,194.77,36.5,199.71c9.36,15.7,26.39,15.66,34.31-.68,4-8.21,4.73-18,6.93-27.06l11.18-.72c1.11,31.82,3.1,63.42,13.45,94C106.76,278.27,114.17,285.83,128,286.72Z"/><path class="cls-8" d="M128,286.72c-13.81-.89-21.22-8.45-25.61-21.45-10.35-30.6-12.34-62.2-13.45-94l13.47-.84c.27,29.92,3.29,59.42,12.3,88.17,3,9.44,8.48,13.48,18.19,12.23,12-1.54,24.21-2.36,36.12-4.6,35.08-6.6,70-13.83,105.09-20.61,7.58-1.47,10.88-5.79,12-13.15,2.13-14.24,4.8-28.39,7.25-42.58l8.27.16c-2.56,15.49-5.3,31-7.62,46.48-1.25,8.38-5.36,13.79-13.69,15.9-36.18,9.19-72.25,18.79-108.57,27.42C157.4,283.24,142.57,284.49,128,286.72Z"/><path class="cls-9" d="M29.77,183.62c-1.15,2.94-3.33,5.9-3.29,8.83.21,13.83,1,27.64,1.61,41.47-2.59-16.47-5.26-32.92-7.69-49.4-.51-3.47-.13-7.08-.17-10.62l5.3-.17,3.71.21C29.42,177.17,29.59,180.39,29.77,183.62Z"/><path class="cls-10" d="M301.58,190l-8.27-.16,1.74-10.4,7.33.19C302.11,183.13,301.85,186.58,301.58,190Z"/><path class="cls-11" d="M295.05,179.48l-1.74,10.4c-2.45,14.19-5.12,28.34-7.25,42.58-1.09,7.36-4.39,11.68-12,13.15-35,6.78-70,14-105.09,20.61-11.91,2.24-24.08,3.06-36.12,4.6-9.71,1.25-15.23-2.79-18.19-12.23-9-28.75-12-58.25-12.3-88.17l.24-8.77c4.24-23.73,8.32-47.49,12.82-71.17,1.44-7.56,5.83-11.87,14.58-11,53.32,5.38,105.32,15.93,154.91,37,8.21,3.49,11.92,8.45,11.62,17C296,148.82,295.55,164.15,295.05,179.48Zm-136-10c2.2,12,4.74,27.37,8.09,42.59.62,2.82,5.06,7.25,6.76,6.85,3-.73,6.8-4.14,7.67-7.17,2.61-9.05,5.25-18.43,5.52-27.74a345.92,345.92,0,0,0-2-44.81c-.58-5.63-4.4-12.54-11.62-10.45-4.3,1.25-9.19,6.44-10.47,10.83C160.54,147.87,160.51,156.89,159,169.45Zm107.57-3.08-1.46-.39c-.2-3.6.59-7.66-.85-10.68-1.91-4-5.55-7.27-8.45-10.85-3.23,3.19-8.22,5.83-9.41,9.66a98.7,98.7,0,0,0-1.81,53.25c.66,2.76,3.52,5,5.36,7.47,2.17-2.23,5.59-4.12,6.31-6.74C260.1,194.29,263.23,180.3,266.6,166.37Z"/><path class="cls-12" d="M29.24,173.94l-3.71-.21c.9-10,1.23-20.16,2.94-30,1-5.78,2.79-12.56,6.67-16.5,18.56-18.87,41.91-30.43,65.62-41.3-3.84,25.21-7.56,49.63-11.27,74L75.75,162c-1.39-3.62-2.46-7.41-4.25-10.82-4-7.51-9.55-13.77-18.64-13.7-9.57.08-15.59,6.55-18.64,14.86C31.69,159.2,30.84,166.71,29.24,173.94Z"/><path class="cls-10" d="M75.75,162l13.74-2.05,13.14,1.73-.24,8.77-13.47.84L77.74,172C77.08,168.64,76.42,165.3,75.75,162Z"/><path class="cls-13" d="M75.75,162c.67,3.33,1.33,6.67,2,10C75.54,181,74.8,190.82,70.81,199c-7.92,16.34-25,16.38-34.31.68-3-4.94-4.52-10.7-6.73-16.09-.18-3.23-.35-6.45-.53-9.68,1.6-7.23,2.45-14.74,5-21.63,3.05-8.31,9.07-14.78,18.64-14.86,9.09-.07,14.69,6.19,18.64,13.7C73.29,154.56,74.36,158.35,75.75,162Z"/><path class="cls-14" d="M159,169.45c1.48-12.56,1.51-21.58,3.95-29.9,1.28-4.39,6.17-9.58,10.47-10.83,7.22-2.09,11,4.82,11.62,10.45a345.92,345.92,0,0,1,2,44.81c-.27,9.31-2.91,18.69-5.52,27.74-.87,3-4.63,6.44-7.67,7.17-1.7.4-6.14-4-6.76-6.85C163.77,196.82,161.23,181.41,159,169.45Z"/><path class="cls-15" d="M266.6,166.37c-3.37,13.93-6.5,27.92-10.31,41.72-.72,2.62-4.14,4.51-6.31,6.74-1.84-2.48-4.7-4.71-5.36-7.47a98.7,98.7,0,0,1,1.81-53.25c1.19-3.83,6.18-6.47,9.41-9.66,2.9,3.58,6.54,6.81,8.45,10.85,1.44,3,.65,7.08.85,10.68Z"/></g></g></svg>