<svg width="103" height="34" viewBox="0 0 103 34" fill="none" xmlns="http://www.w3.org/2000/svg">
<path d="M13.0531 11.9045V15.4633H21.56C21.1375 20.452 16.9856 22.5808 13.0694 22.5808C10.5482 22.5808 8.13023 21.5792 6.34746 19.7964C4.5647 18.0137 3.56315 15.5957 3.56315 13.0745C3.56315 10.5533 4.5647 8.13534 6.34746 6.35257C8.13023 4.5698 10.5482 3.56825 13.0694 3.56825C15.4591 3.56454 17.7571 4.48783 19.48 6.14388L21.9744 3.56013C19.5646 1.23154 16.3307 -0.0479897 12.98 0.00137724C11.2632 0.0136476 9.56567 0.363945 7.98427 1.03227C6.40286 1.70059 4.96857 2.67385 3.76329 3.89648C2.55802 5.11911 1.60536 6.56716 0.95971 8.15796C0.31406 9.74876 -0.0119365 11.4512 0.000333936 13.1679C0.0126043 14.8847 0.362901 16.5823 1.03122 18.1637C1.69955 19.7451 2.67281 21.1794 3.89543 22.3847C5.11806 23.5899 6.56612 24.5426 8.15692 25.1883C9.74772 25.8339 11.4501 26.1599 13.1669 26.1476C20.1625 26.1476 25.2894 21.3539 25.2894 14.2608C25.3048 13.4696 25.2312 12.6792 25.07 11.9045H13.0531Z" fill="#4885ED"/>
<path d="M34.8688 9.32888C33.2099 9.33531 31.5902 9.83267 30.2136 10.7583C28.837 11.6839 27.7652 12.9963 27.1334 14.5301C26.5015 16.0639 26.3379 17.7504 26.6631 19.377C26.9883 21.0037 27.7878 22.4977 28.9608 23.6706C30.1337 24.8436 31.6277 25.6431 33.2543 25.9683C34.881 26.2935 36.5675 26.1299 38.1013 25.498C39.6351 24.8662 40.9475 23.7944 41.8731 22.4178C42.7987 21.0412 43.2961 19.4215 43.3025 17.7626C43.3201 16.6502 43.1139 15.5457 42.6963 14.5145C42.2787 13.4834 41.6581 12.5466 40.8714 11.76C40.0848 10.9733 39.148 10.3527 38.1169 9.93509C37.0857 9.51747 35.9812 9.31132 34.8688 9.32888ZM34.9175 12.6276C35.94 12.5674 36.957 12.8158 37.8366 13.3406C38.7162 13.8653 39.4178 14.6423 39.8505 15.5707C40.2831 16.4991 40.4268 17.5361 40.2629 18.5472C40.099 19.5582 39.6351 20.4967 38.9313 21.2409C38.2275 21.9851 37.3164 22.5007 36.3161 22.7207C35.3157 22.9407 34.2723 22.8551 33.3212 22.475C32.3701 22.0948 31.5552 21.4376 30.9822 20.5886C30.4091 19.7397 30.1044 18.7381 30.1075 17.7139C30.0734 17.0602 30.1724 16.4064 30.3985 15.7921C30.6246 15.1778 30.9731 14.6159 31.4229 14.1403C31.8726 13.6647 32.4143 13.2854 33.015 13.0254C33.6157 12.7654 34.263 12.63 34.9175 12.6276Z" fill="#DB3236"/>
<path d="M53.2475 9.32887C51.5883 9.3337 49.9677 9.8297 48.5901 10.7543C47.2124 11.679 46.1394 12.9908 45.5063 14.5245C44.8732 16.0581 44.7084 17.7449 45.0327 19.3721C45.357 20.9993 46.1559 22.494 47.3285 23.6678C48.5012 24.8416 49.9951 25.6419 51.622 25.9677C53.2489 26.2936 54.9358 26.1304 56.4701 25.4988C58.0043 24.8672 59.3172 23.7954 60.2432 22.4187C61.1692 21.0419 61.6667 19.4218 61.6731 17.7626C61.6907 16.6509 61.4848 15.547 61.0676 14.5164C60.6505 13.4858 60.0307 12.5495 59.2449 11.7629C58.4591 10.9763 57.5233 10.3556 56.4931 9.93749C55.4629 9.51938 54.3592 9.31242 53.2475 9.32887ZM53.2963 12.6276C54.3188 12.5674 55.3358 12.8158 56.2154 13.3405C57.095 13.8653 57.7966 14.6423 58.2292 15.5707C58.6619 16.4991 58.8055 17.5361 58.6416 18.5472C58.4777 19.5582 58.0138 20.4967 57.3101 21.2409C56.6063 21.9851 55.6951 22.5007 54.6948 22.7207C53.6945 22.9407 52.6511 22.8551 51.7 22.475C50.7489 22.0948 49.934 21.4376 49.3609 20.5886C48.7879 19.7397 48.4832 18.7381 48.4863 17.7139C48.4522 17.0602 48.5512 16.4064 48.7773 15.7921C49.0034 15.1778 49.3518 14.6159 49.8016 14.1403C50.2514 13.6647 50.793 13.2854 51.3937 13.0254C51.9944 12.7653 52.6417 12.63 53.2963 12.6276Z" fill="#F4C20D"/>
<path d="M71.2607 9.337C66.7432 9.337 63.1925 13.2939 63.1925 17.7301C63.1592 19.898 63.9768 21.9926 65.4699 23.5647C66.963 25.1367 69.0127 26.0611 71.1794 26.1395C72.0537 26.1871 72.9269 26.0272 73.7276 25.6727C74.5283 25.3183 75.2337 24.7794 75.7863 24.1001V25.7251C75.7863 28.6257 74.0231 30.3564 71.3663 30.3564C70.4397 30.3487 69.5365 30.0647 68.7722 29.5407C68.008 29.0168 67.4175 28.2766 67.0763 27.4151L63.8263 28.7639C64.4549 30.2437 65.5084 31.5038 66.8535 32.3847C68.1986 33.2655 69.7748 33.7274 71.3825 33.712C75.8756 33.712 79.2963 30.8845 79.2963 24.9533V9.84075H75.7944V11.2626C75.2201 10.6364 74.5183 10.1406 73.7362 9.8084C72.9542 9.47624 72.11 9.31549 71.2607 9.337ZM71.5856 12.6276C73.8038 12.6276 76.0706 14.5207 76.0706 17.7464C76.0706 20.972 73.8038 22.8408 71.5369 22.8408C70.8959 22.8245 70.2647 22.6793 69.6809 22.4139C69.0972 22.1484 68.5728 21.7682 68.1392 21.2959C67.7055 20.8235 67.3713 20.2687 67.1566 19.6645C66.9419 19.0602 66.851 18.419 66.8894 17.7789C66.8894 14.5289 69.2131 12.6276 71.5856 12.6276Z" fill="#4885ED"/>
<path d="M94.9856 9.31263C90.7281 9.31263 87.145 12.7008 87.145 17.7058C87.1029 18.8088 87.2861 19.9088 87.6832 20.9387C88.0803 21.9686 88.6832 22.9068 89.4549 23.696C90.2266 24.4852 91.1511 25.1089 92.1718 25.529C93.1926 25.9492 94.2882 26.1569 95.3919 26.1395C96.7761 26.1422 98.1401 25.8078 99.3661 25.1651C100.592 24.5224 101.643 23.5908 102.428 22.4508L99.5194 20.517C99.0981 21.2321 98.495 21.8229 97.7716 22.2296C97.0481 22.6363 96.2299 22.8443 95.4 22.8326C94.538 22.8682 93.685 22.6451 92.9509 22.1919C92.2168 21.7386 91.6351 21.0761 91.2807 20.2895L102.55 15.6176L101.965 14.2445C101.428 12.8181 100.474 11.586 99.2285 10.708C97.9825 9.83004 96.5015 9.34672 94.9775 9.32075L94.9856 9.31263ZM95.1319 12.5626C95.7676 12.5352 96.398 12.6896 96.9491 13.0076C97.5003 13.3256 97.9494 13.7941 98.2438 14.3583L90.72 17.5026C90.6827 16.888 90.7675 16.2721 90.9695 15.6904C91.1714 15.1087 91.4866 14.5727 91.8967 14.1134C92.3069 13.6542 92.804 13.2807 93.3592 13.0145C93.9145 12.7483 94.517 12.5948 95.1319 12.5626Z" fill="#DB3236"/>
<path d="M81.7744 25.6439H85.4794V0.870754H81.7744V25.6439Z" fill="#3CBA54"/>
</svg>
