<svg width="108" height="22" viewBox="0 0 108 22" fill="none" xmlns="http://www.w3.org/2000/svg">
<path d="M3.53848 14.5084C3.53848 15.773 3.81312 16.744 4.17192 17.3314C4.64231 18.1008 5.3441 18.4269 6.05981 18.4269C6.98245 18.4269 7.82663 18.1953 9.45338 15.9204C10.7568 14.097 12.2926 11.5378 13.3258 9.93334L15.0755 7.21504C16.2911 5.3272 17.6981 3.22865 19.3111 1.80616C20.6284 0.64492 22.0491 0 23.4788 0C25.8793 0 28.1659 1.40628 29.9156 4.04397C31.8307 6.93289 32.7603 10.5714 32.7603 14.3264C32.7603 16.5587 32.3251 18.1987 31.5845 19.4945C30.869 20.7477 29.4747 21.9998 27.1289 21.9998V18.4269C29.1374 18.4269 29.6386 16.5608 29.6386 14.4254C29.6386 11.3823 28.9368 8.0052 27.3909 5.59208C26.294 3.8804 24.8723 2.83453 23.308 2.83453C21.6162 2.83453 20.2549 4.1248 18.7247 6.42489C17.9113 7.64691 17.0762 9.13615 16.1386 10.8167L15.1065 12.6655C13.033 16.3823 12.5078 17.229 11.4712 18.6261C9.65419 21.0725 8.10253 22 6.05981 22C3.63656 22 2.10431 20.939 1.15552 19.3403C0.38032 18.0375 0 16.3282 0 14.3806L3.53848 14.5084Z" fill="#0081FB"/>
<path d="M2.79007 4.29627C4.41218 1.76798 6.75359 0 9.43861 0C10.9936 0 12.5396 0.465349 14.1539 1.79784C15.9197 3.2551 17.8019 5.65435 20.1498 9.60854L20.9914 11.0276C23.024 14.4508 24.1804 16.2119 24.8571 17.0424C25.7274 18.1089 26.337 18.4269 27.1289 18.4269C29.1374 18.4269 29.6386 16.5608 29.6386 14.4254L32.7603 14.3264C32.7603 16.5587 32.3251 18.1987 31.5845 19.4945C30.869 20.7477 29.4747 21.9998 27.1289 21.9998C25.6707 21.9998 24.3787 21.6797 22.95 20.3171C21.8519 19.2712 20.5679 17.4133 19.5801 15.7432L16.6421 10.7811C15.1677 8.29076 13.8156 6.43406 13.033 5.59314C12.1909 4.68889 11.1088 3.59696 9.38166 3.59696C7.98377 3.59696 6.79662 4.58887 5.80331 6.10584L2.79007 4.29627Z" fill="url(#paint0_linear_125_202)"/>
<path d="M9.38166 3.59696C7.98377 3.59696 6.79662 4.58887 5.80331 6.10584C4.39847 8.24917 3.53848 11.4422 3.53848 14.5084C3.53848 15.773 3.81312 16.744 4.17192 17.3314L1.15552 19.3403C0.38032 18.0375 0 16.3282 0 14.3806C0 10.8387 0.961453 7.14701 2.79007 4.29627C4.41218 1.76798 6.75359 0 9.43861 0L9.38166 3.59696Z" fill="url(#paint1_linear_125_202)"/>
<path d="M39.6387 0.695678H43.732L50.6917 13.4256L57.6526 0.695678H61.6568V21.6129H58.3177V5.58163L52.2136 16.683H49.0809L42.9781 5.58163V21.6129H39.639L39.6387 0.695678ZM72.1195 8.49486C69.725 8.49486 68.2826 10.3168 67.9375 12.5734H76.0649C75.8974 10.2488 74.5713 8.49486 72.1195 8.49486ZM64.627 13.8585C64.627 9.11077 67.6618 5.65521 72.1777 5.65521C76.6197 5.65521 79.2716 9.06684 79.2716 14.1119V15.0392H67.9375C68.3395 17.4937 69.9505 19.1478 72.5479 19.1478C74.6202 19.1478 75.9156 18.5084 77.1436 17.3393L78.9176 19.5359C77.2462 21.0896 75.1203 21.9857 72.4294 21.9857C67.5409 21.9857 64.627 18.3817 64.627 13.8585ZM83.3205 8.79386H80.247V6.0297H83.3207V1.45811H86.5424V6.0297H91.2121V8.79407H86.5424V15.801C86.5424 18.1932 87.2988 19.0433 89.158 19.0433C90.0068 19.0433 90.4932 18.9695 91.2121 18.8486V21.5831C90.3167 21.8388 89.4622 21.9563 88.5372 21.9563C85.0591 21.9563 83.3207 20.035 83.3207 16.1891L83.3205 8.79386ZM104.778 11.4823C104.131 9.83055 102.688 8.61429 100.566 8.61429C97.8092 8.61429 96.0447 10.5919 96.0447 13.8137C96.0447 16.9545 97.6691 19.0279 100.434 19.0279C102.608 19.0279 104.159 17.7494 104.778 16.1586V11.4823ZM108 21.6125H104.837V19.4312C103.953 20.7155 102.345 21.9861 99.739 21.9861C95.549 21.9861 92.7486 18.4395 92.7486 13.8137C92.7486 9.14426 95.6163 5.65542 99.9169 5.65542C102.043 5.65542 103.711 6.51489 104.837 8.03164V6.0297H108L108 21.6125Z" fill="#192830"/>
<defs>
<linearGradient id="paint0_linear_125_202" x1="1498.82" y1="1230.55" x2="9382.99" y2="2649.82" gradientUnits="userSpaceOnUse">
<stop stop-color="#0064E1"/>
<stop offset="0.4" stop-color="#0064E1"/>
<stop offset="0.83" stop-color="#0073EE"/>
<stop offset="1" stop-color="#0082FB"/>
</linearGradient>
<linearGradient id="paint1_linear_125_202" x1="5866.02" y1="1821.2" x2="5866.02" y2="864.754" gradientUnits="userSpaceOnUse">
<stop stop-color="#0082FB"/>
<stop offset="1" stop-color="#0064E0"/>
</linearGradient>
</defs>
</svg>
