<svg width="114" height="24" viewBox="0 0 114 24" fill="none" xmlns="http://www.w3.org/2000/svg">
<path d="M114 10.8573V8.88009H111.51V5.80662L109.042 6.55138V8.88009H105.351V7.5829C105.351 6.97888 105.488 6.51647 105.758 6.20842C106.026 5.90367 106.41 5.74887 106.899 5.74887C107.25 5.74887 107.614 5.83055 107.981 5.99149L108.072 6.03189V3.94998L108.029 3.93461C107.687 3.81319 107.223 3.75237 106.647 3.75237C105.92 3.75237 105.261 3.90804 104.685 4.21697C104.109 4.52589 103.656 4.96766 103.339 5.52909C103.023 6.08986 102.863 6.73735 102.863 7.45402V8.88031H101.129V10.8575H102.863V19.1863H105.351V10.8573H109.042V16.1501C109.042 18.33 110.085 19.4348 112.141 19.4348C112.496 19.4327 112.851 19.3939 113.198 19.3189C113.567 19.2405 113.819 19.1621 113.967 19.0784L114 19.0593V17.0639L113.899 17.13C113.764 17.219 113.596 17.2914 113.398 17.3452C113.2 17.4001 113.035 17.4278 112.907 17.4278C112.425 17.4278 112.069 17.2998 111.847 17.047C111.624 16.7923 111.51 16.3464 111.51 15.7228V10.8573H114ZM95.5712 17.428C94.6679 17.428 93.9558 17.1324 93.4537 16.5508C92.949 15.9659 92.6929 15.1324 92.6929 14.073C92.6929 12.9802 92.949 12.125 93.4542 11.5298C93.9563 10.9387 94.6616 10.6386 95.5509 10.6386C96.4137 10.6386 97.1006 10.9251 97.5927 11.4909C98.0872 12.0594 98.3381 12.9078 98.3381 14.0133C98.3381 15.1324 98.1021 15.9922 97.6368 16.5673C97.1748 17.1382 96.4798 17.428 95.5712 17.428ZM95.6821 8.63176C93.9587 8.63176 92.5898 9.12974 91.6141 10.1119C90.6387 11.0942 90.1442 12.4533 90.1442 14.1523C90.1442 15.7659 90.6269 17.0637 91.579 18.0094C92.531 18.9551 93.8269 19.4344 95.4298 19.4344C97.1004 19.4344 98.4419 18.9296 99.4176 17.9339C100.393 16.9392 100.887 15.5929 100.887 13.9334C100.887 12.2948 100.423 10.9873 99.5084 10.048C98.5929 9.10822 97.3052 8.63176 95.6821 8.63176ZM86.1315 8.63176C84.9592 8.63176 83.9895 8.92752 83.2487 9.51046C82.5037 10.0969 82.1256 10.8663 82.1256 11.797C82.1256 12.2807 82.2071 12.7104 82.3679 13.0749C82.5293 13.4407 82.7794 13.7626 83.1116 14.0328C83.4411 14.3009 83.9499 14.5818 84.6243 14.8672C85.191 15.0973 85.6138 15.292 85.8823 15.4453C86.1448 15.5957 86.3312 15.7468 86.4363 15.8939C86.5385 16.0377 86.5903 16.2349 86.5903 16.4779C86.5903 17.1704 86.0647 17.5072 84.9828 17.5072C84.5813 17.5072 84.1235 17.4247 83.6221 17.2618C83.1243 17.1012 82.6545 16.8662 82.229 16.5651L82.1256 16.4922V18.8547L82.1635 18.8723C82.5157 19.0326 82.9597 19.1676 83.483 19.2741C84.0053 19.3803 84.4796 19.4346 84.8919 19.4346C86.164 19.4346 87.1884 19.1375 87.9356 18.5511C88.6882 17.9604 89.0694 17.1733 89.0694 16.2101C89.0694 15.5156 88.8641 14.9197 88.4593 14.4393C88.0579 13.9628 87.3605 13.5252 86.388 13.1386C85.6131 12.8318 85.1166 12.5773 84.912 12.3819C84.7145 12.1931 84.6143 11.9261 84.6143 11.5882C84.6143 11.2883 84.7381 11.0483 84.9921 10.8538C85.2482 10.6583 85.6044 10.5589 86.0511 10.5589C86.4659 10.5589 86.89 10.6234 87.312 10.7499C87.7337 10.8766 88.1037 11.0463 88.413 11.2536L88.5145 11.3221V9.08077L88.4756 9.06431C88.1906 8.94354 87.8143 8.84035 87.3578 8.75691C86.9027 8.67392 86.4902 8.63176 86.1315 8.63176ZM75.6377 17.428C74.7346 17.428 74.0223 17.1324 73.5204 16.5508C73.0154 15.9659 72.7601 15.1324 72.7601 14.073C72.7601 12.9802 73.0157 12.125 73.5211 11.5298C74.0227 10.9387 74.7279 10.6386 75.6176 10.6386C76.4804 10.6386 77.1673 10.9251 77.6594 11.4909C78.1539 12.0594 78.4048 12.9078 78.4048 14.0133C78.4048 15.1324 78.1688 15.9922 77.7035 16.5673C77.2412 17.1382 76.5465 17.428 75.6377 17.428ZM75.7488 8.63176C74.025 8.63176 72.6561 9.12974 71.6808 10.1119C70.7056 11.0942 70.2106 12.4533 70.2106 14.1523C70.2106 15.7665 70.6938 17.0637 71.6457 18.0094C72.5975 18.9551 73.8934 19.4344 75.4967 19.4344C77.1666 19.4344 78.5088 18.9296 79.4845 17.9339C80.4595 16.9392 80.954 15.5929 80.954 13.9334C80.954 12.2948 80.49 10.9873 79.5749 10.048C78.6591 9.10822 77.3717 8.63176 75.7488 8.63176ZM66.4328 10.6649V8.88009H63.9745V19.1858H66.4326V13.9138C66.4326 13.0174 66.6388 12.2809 67.0456 11.7248C67.447 11.1752 67.9823 10.8966 68.6353 10.8966C68.8569 10.8966 69.1054 10.9326 69.3746 11.0039C69.6411 11.0746 69.8341 11.1515 69.9479 11.2323L70.0512 11.3063V8.86252L70.0111 8.84562C69.7825 8.74967 69.4585 8.70136 69.0488 8.70136C68.431 8.70136 67.8781 8.897 67.4047 9.28233C66.989 9.62112 66.6884 10.0857 66.4589 10.6649H66.4328ZM59.5721 8.63176C58.4444 8.63176 57.4382 8.87043 56.5825 9.34052C55.7253 9.81149 55.062 10.4845 54.6109 11.3397C54.1618 12.1931 53.9338 13.1899 53.9338 14.3016C53.9338 15.2751 54.1549 16.1688 54.5918 16.9561C55.029 17.745 55.648 18.3622 56.4313 18.7904C57.2137 19.2179 58.118 19.4346 59.1188 19.4346C60.2871 19.4346 61.2846 19.2043 62.0846 18.7502L62.1166 18.7318V16.5109L62.0136 16.5853C61.6455 16.8482 61.2402 17.0562 60.8108 17.2027C60.3761 17.3522 59.9803 17.4278 59.6329 17.4278C58.6681 17.4278 57.894 17.1302 57.3318 16.5436C56.7684 15.9558 56.4828 15.1309 56.4828 14.0926C56.4828 13.0479 56.7807 12.2017 57.3676 11.577C57.953 10.9545 58.7287 10.6388 59.6734 10.6388C60.4815 10.6388 61.2688 10.9087 62.0136 11.4415L62.1166 11.5153V9.17519L62.0835 9.15674C61.8029 9.00195 61.4208 8.87416 60.9461 8.77733C60.4737 8.68073 60.0114 8.63176 59.5721 8.63176ZM52.2407 8.88009H49.7822V19.1858H52.2407V8.88009ZM51.0366 4.48989C50.632 4.48989 50.2791 4.6258 49.9892 4.89476C49.698 5.16483 49.5501 5.50472 49.5501 5.90564C49.5501 6.30042 49.6962 6.63394 49.9843 6.89676C50.2709 7.1587 50.6249 7.29154 51.0366 7.29154C51.4481 7.29154 51.8034 7.1587 52.0933 6.8972C52.385 6.63394 52.5331 6.30042 52.5331 5.90564C52.5331 5.51877 52.389 5.18218 52.1053 4.90574C51.8219 4.62975 51.4621 4.48989 51.0366 4.48989ZM44.9029 8.11996V19.1856H47.4118V4.8054H43.9394L39.5257 15.4866L35.2427 4.8054H31.629V19.1858H33.9867V8.11886H34.0677L38.5906 19.1858H40.3696L44.8218 8.11974L44.9029 8.11996Z" fill="#706D6E"/>
<path d="M11.5645 11.404H0V0H11.5645V11.404Z" fill="#F1511B"/>
<path d="M24.3334 11.404H12.7689V0H24.3334V11.404Z" fill="#80CC28"/>
<path d="M11.5643 24H0V12.596H11.5643V24Z" fill="#00ADEF"/>
<path d="M24.3334 24H12.7689V12.596H24.3334V24Z" fill="#FBBC09"/>
</svg>
