<svg width="116" height="30" viewBox="0 0 116 30" fill="none" xmlns="http://www.w3.org/2000/svg">
<path d="M37.1066 23.623L38.5578 20.1815C40.1248 21.377 42.203 21.9975 44.2583 21.9975C45.7806 21.9975 46.7343 21.4004 46.7343 20.4912C46.7113 17.9624 37.6442 19.9431 37.5777 13.5895C37.5548 10.3665 40.3575 7.87862 44.3294 7.87862C46.6896 7.87862 49.0486 8.47694 50.7325 9.84185L49.3765 13.3523C47.8359 12.3473 45.9193 11.631 44.0967 11.631C42.8564 11.631 42.0414 12.2293 42.0414 12.9912C42.0643 15.4744 51.1979 14.1142 51.2919 20.1815C51.2919 23.4769 48.5615 25.7954 44.6343 25.7954C41.7594 25.7954 39.1172 25.1036 37.1066 23.623ZM92.7017 18.9393C92.2487 19.7628 91.5404 20.4096 90.6879 20.7783C89.8353 21.147 88.8868 21.2166 87.9913 20.9764C87.0957 20.7361 86.3037 20.1994 85.7397 19.4507C85.1756 18.7019 84.8714 17.7834 84.8748 16.8394C84.8733 16.2783 84.9803 15.7225 85.1899 15.2038C85.3994 14.685 85.7072 14.2135 86.0958 13.8162C86.4843 13.4189 86.9459 13.1036 87.4542 12.8885C87.9624 12.6733 88.5073 12.5625 89.0576 12.5623C90.62 12.5623 91.9772 13.4481 92.7028 14.7359L96.6965 12.4665C95.2006 9.74603 92.3257 7.87862 89.0576 7.87862C84.2168 7.87862 80.2942 11.8962 80.2942 16.8394C80.2942 21.7825 84.2168 25.7954 89.0576 25.7954C90.6174 25.799 92.1494 25.375 93.4933 24.5678C94.8372 23.7607 95.9435 22.6001 96.6965 21.2075L92.7017 18.9393ZM53.3025 0.451073H58.3049V25.4624H53.3025V0.451073ZM98.6624 0.451073V25.4624H103.659V17.9624L109.597 25.4624H116L108.451 16.5519L115.439 8.23972H109.315L103.659 15.1414V0.452241L98.6624 0.451073ZM73.1654 18.9896C72.441 20.2084 70.9451 21.1117 69.2612 21.1117C68.7113 21.1114 68.1669 21.0006 67.6591 20.7857C67.1513 20.5708 66.6901 20.2559 66.3017 19.8591C65.9133 19.4623 65.6055 18.9914 65.3958 18.4733C65.1861 17.9551 65.0786 17.3999 65.0795 16.8394C65.0784 16.2786 65.1858 15.7231 65.3954 15.2046C65.605 14.6861 65.9128 14.2148 66.3011 13.8176C66.6894 13.4204 67.1507 13.1051 67.6586 12.8897C68.1665 12.6743 68.7111 12.5631 69.2612 12.5623C70.9451 12.5623 72.441 13.5159 73.1654 14.7581V18.9896ZM73.1654 8.23855V10.2719C72.347 8.86023 70.3135 7.87862 68.1871 7.87862C63.7945 7.87862 60.3373 11.846 60.3373 16.8125C60.3373 21.7837 63.7945 25.7954 68.1871 25.7954C70.3135 25.7954 72.347 24.8138 73.1654 23.408V25.4402H78.1678V8.23855H73.1654Z" fill="black"/>
<path d="M6.19342 18.9615C6.19342 20.7062 4.81443 22.1167 3.1076 22.1167C2.70174 22.1164 2.29991 22.0345 1.92512 21.8757C1.55034 21.7169 1.20995 21.4843 0.923434 21.1912C0.636921 20.8982 0.40991 20.5504 0.255391 20.1678C0.100873 19.7852 0.0218806 19.3753 0.0229357 18.9615C0.0221819 18.5481 0.101421 18.1386 0.256117 17.7565C0.410813 17.3744 0.637926 17.0271 0.924454 16.7345C1.21098 16.442 1.5513 16.21 1.92591 16.0517C2.30053 15.8934 2.70209 15.812 3.1076 15.8122H6.19342V18.9615ZM7.73289 18.9615C7.73213 18.548 7.81141 18.1384 7.96618 17.7562C8.12094 17.374 8.34816 17.0267 8.63481 16.7341C8.92146 16.4416 9.26191 16.2095 9.63666 16.0513C10.0114 15.8931 10.4131 15.8119 10.8187 15.8122C11.2243 15.812 11.626 15.8934 12.0007 16.0518C12.3753 16.2101 12.7157 16.4423 13.0023 16.7349C13.2888 17.0276 13.5159 17.375 13.6705 17.7573C13.8251 18.1396 13.9043 18.5492 13.9034 18.9627V26.846C13.9043 27.2596 13.8252 27.6694 13.6706 28.0519C13.516 28.4344 13.289 28.782 13.0025 29.075C12.716 29.3679 12.3756 29.6004 12.0009 29.7591C11.6262 29.9178 11.2245 29.9997 10.8187 30C10.4127 29.9998 10.0108 29.9181 9.63587 29.7593C9.26095 29.6006 8.92042 29.368 8.63379 29.075C8.34715 28.7819 8.12004 28.434 7.96545 28.0514C7.81086 27.6687 7.73183 27.2587 7.73289 26.8448V18.9615Z" fill="#E01E5A"/>
<path d="M10.8187 6.30453C10.4127 6.30438 10.0108 6.2226 9.63587 6.06387C9.26095 5.90514 8.92042 5.67257 8.63379 5.37949C8.34715 5.08641 8.12004 4.73857 7.96545 4.35589C7.81086 3.97321 7.73183 3.56321 7.73289 3.14935C7.73213 2.73585 7.81141 2.32626 7.96618 1.94404C8.12094 1.56183 8.34816 1.2145 8.63481 0.921948C8.92146 0.629397 9.26191 0.397375 9.63666 0.239171C10.0114 0.0809679 10.4131 -0.000307276 10.8187 8.72962e-07C11.2242 -0.000153522 11.6258 0.0812334 12.0004 0.239506C12.375 0.397778 12.7153 0.629826 13.0018 0.922362C13.2884 1.2149 13.5155 1.56218 13.6702 1.94432C13.8249 2.32645 13.9041 2.73595 13.9034 3.14935V6.30453H10.8187ZM10.8187 7.90667C11.2242 7.90652 11.6258 7.9879 12.0004 8.14617C12.375 8.30445 12.7153 8.5365 13.0018 8.82903C13.2884 9.12157 13.5155 9.46885 13.6702 9.85098C13.8249 10.2331 13.9041 10.6426 13.9034 11.056C13.9034 12.7995 12.5244 14.2112 10.8187 14.2112H3.08582C2.67986 14.2111 2.27791 14.1293 1.90299 13.9705C1.52807 13.8118 1.18755 13.5792 0.900913 13.2862C0.614279 12.9931 0.387164 12.6452 0.232574 12.2626C0.077984 11.8799 -0.00104483 11.4699 1.04302e-05 11.056C-0.000743603 10.6425 0.0785327 10.2329 0.2333 9.85071C0.388067 9.4685 0.615283 9.12117 0.901933 8.82862C1.18858 8.53607 1.52903 8.30404 1.90378 8.14584C2.27853 7.98764 2.68021 7.90636 3.08582 7.90667H10.8187Z" fill="#36C5F0"/>
<path d="M23.1814 11.056C23.1807 10.6426 23.2599 10.2331 23.4146 9.85098C23.5693 9.46885 23.7964 9.12157 24.083 8.82903C24.3695 8.5365 24.7098 8.30445 25.0844 8.14617C25.459 7.9879 25.8606 7.90652 26.2661 7.90667C26.6717 7.90636 27.0734 7.98764 27.4482 8.14584C27.8229 8.30404 28.1633 8.53607 28.45 8.82862C28.7366 9.12117 28.9639 9.4685 29.1186 9.85071C29.2734 10.2329 29.3527 10.6425 29.3519 11.056C29.3519 12.7995 27.9729 14.2112 26.2661 14.2112H23.1814V11.056ZM21.6408 11.056C21.6408 12.7995 20.2618 14.2112 18.5562 14.2112C18.1502 14.2111 17.7482 14.1293 17.3733 13.9705C16.9984 13.8118 16.6579 13.5792 16.3712 13.2862C16.0846 12.9931 15.8575 12.6452 15.7029 12.2626C15.5483 11.8799 15.4693 11.4699 15.4703 11.056V3.14935C15.4696 2.73585 15.5489 2.32626 15.7036 1.94404C15.8584 1.56183 16.0856 1.2145 16.3723 0.921948C16.6589 0.629397 16.9994 0.397375 17.3741 0.239171C17.7489 0.0809679 18.1505 -0.000307276 18.5562 8.72962e-07C18.9617 -0.000153522 19.3632 0.0812334 19.7378 0.239506C20.1125 0.397778 20.4528 0.629826 20.7393 0.922362C21.0258 1.2149 21.2529 1.56218 21.4076 1.94432C21.5623 2.32645 21.6416 2.73595 21.6408 3.14935V11.056Z" fill="#2EB67D"/>
<path d="M18.5562 23.6955C18.9618 23.6953 19.3634 23.7767 19.7381 23.9351C20.1128 24.0934 20.4532 24.3256 20.7397 24.6182C21.0263 24.9109 21.2533 25.2583 21.408 25.6406C21.5626 26.0229 21.6417 26.4325 21.6408 26.846C21.6417 27.2596 21.5626 27.6694 21.408 28.0519C21.2535 28.4344 21.0264 28.782 20.7399 29.075C20.4534 29.3679 20.1131 29.6004 19.7384 29.7591C19.3637 29.9178 18.9619 29.9997 18.5562 30C18.1502 29.9998 17.7482 29.9181 17.3733 29.7593C16.9984 29.6006 16.6579 29.368 16.3712 29.075C16.0846 28.7819 15.8575 28.434 15.7029 28.0514C15.5483 27.6687 15.4693 27.2587 15.4703 26.8448V23.6955H18.5562ZM18.5562 22.1167C18.1502 22.1165 17.7482 22.0348 17.3733 21.876C16.9984 21.7173 16.6579 21.4847 16.3712 21.1917C16.0846 20.8986 15.8575 20.5507 15.7029 20.1681C15.5483 19.7854 15.4693 19.3754 15.4703 18.9615C15.4696 18.548 15.5489 18.1384 15.7036 17.7562C15.8584 17.374 16.0856 17.0267 16.3723 16.7341C16.6589 16.4416 16.9994 16.2095 17.3741 16.0513C17.7489 15.8931 18.1505 15.8119 18.5562 15.8122H26.289C26.6946 15.812 27.0963 15.8934 27.471 16.0518C27.8457 16.2101 28.186 16.4423 28.4726 16.7349C28.7591 17.0276 28.9862 17.375 29.1408 17.7573C29.2955 18.1396 29.3746 18.5492 29.3737 18.9627C29.3746 19.3763 29.2955 19.7861 29.1409 20.1686C28.9863 20.5511 28.7593 20.8987 28.4728 21.1917C28.1863 21.4846 27.846 21.7171 27.4712 21.8758C27.0965 22.0345 26.6948 22.1164 26.289 22.1167H18.5562Z" fill="#ECB22E"/>
</svg>
