<svg width="243" height="243" viewBox="0 0 243 243" fill="none" xmlns="http://www.w3.org/2000/svg">
<path d="M86.5688 100.116C95.8939 100.116 103.356 102.445 109.056 107.629C112.955 111.162 115.131 116.194 115.071 121.47C115.061 124.073 114.523 126.648 113.489 129.037C112.456 131.427 110.947 133.582 109.056 135.371C103.721 140.272 95.4079 142.884 86.5789 142.884C77.7499 142.884 69.5689 140.272 64.152 135.371C62.1949 133.629 60.6363 131.485 59.5827 129.086C58.5291 126.687 58.0052 124.089 58.0466 121.47C58.0466 116.225 60.2539 111.193 64.152 107.629C69.2145 103.032 78.165 100.116 86.5688 100.116ZM86.5992 137.275C91.2668 137.275 95.5902 135.645 98.6277 132.637C101.665 129.6 103.012 125.955 103.012 121.47C103.012 117.177 101.513 113.157 98.6277 110.302C95.6509 107.365 91.206 105.705 86.5992 105.705C81.9923 105.705 77.5575 107.355 74.5504 110.302C71.6648 113.157 70.1561 117.177 70.1561 121.47C70.0945 125.625 71.6734 129.638 74.5504 132.637C77.5575 135.614 81.972 137.275 86.5992 137.275ZM37.584 117.349C39.204 117.76 40.7768 118.311 42.3023 118.999C43.7163 119.653 45.0128 120.536 46.1397 121.611C48.1343 123.697 49.2683 126.492 49.2379 129.377C49.2596 130.899 48.9237 132.405 48.2572 133.773C47.5907 135.141 46.6122 136.334 45.4005 137.254C43.2528 138.876 40.8168 140.075 38.2219 140.788C34.3134 142.019 30.2294 142.601 26.1327 142.509C22.5687 142.509 20.6044 142.094 17.901 141.527L17.1214 141.365C14.1421 140.708 11.233 139.765 8.43415 138.55C8.30899 138.466 8.15998 138.423 8.0089 138.429C7.78686 138.434 7.5757 138.526 7.42055 138.685C7.26541 138.844 7.17859 139.057 7.17865 139.279V141.335H1.22515V126.37H6.53065C6.56573 127.887 7.04832 129.359 7.91777 130.602C10.0643 133.235 12.3728 134.247 14.5699 135.057C18.2858 136.272 22.1839 136.92 26.0719 137.042C31.671 137.042 34.9414 135.685 35.6501 135.391L35.7413 135.351L35.802 135.331C36.4298 135.098 38.961 134.176 38.961 131.362C38.961 128.587 36.5918 127.98 35.0426 127.585L34.8199 127.534C33.0986 127.069 29.1296 126.643 24.7961 126.188L23.2571 126.026C19.1936 125.61 15.15 125.019 11.1375 124.254C6.09528 123.14 4.11078 121.297 2.87553 120.153L2.79452 120.072C0.993822 118.152 -0.00575831 115.617 2.49556e-05 112.985C2.49556e-05 107.963 3.44252 104.925 7.67477 103.062C12.2789 101.097 17.2386 100.101 22.2446 100.136C30.5471 100.167 37.3005 102.87 39.7305 104.125C40.7126 104.652 41.1986 104.004 41.1986 103.518V102.009H46.5345V115.05H41.7555C41.3306 113.113 40.2855 111.368 38.7788 110.079C37.8618 109.343 36.8505 108.734 35.7716 108.267C31.767 106.571 27.4537 105.726 23.1053 105.786C18.6199 105.786 14.3269 106.647 12.1703 107.963C10.827 108.8 10.152 109.833 10.1453 111.061C10.1453 112.813 11.6235 113.511 12.3728 113.724C14.3573 114.331 18.7718 114.767 22.2041 115.111L24.2696 115.324C27.5805 115.658 34.5161 116.579 37.584 117.349ZM221.525 107.254V102.404H243V107.163H238.181C236.439 107.163 235.73 107.497 234.414 108.975L219.966 125.479C219.815 125.683 219.746 125.936 219.773 126.188V133.701C219.796 134.05 219.836 134.398 219.895 134.743C219.981 134.964 220.117 135.161 220.293 135.319C220.469 135.477 220.679 135.592 220.907 135.655C221.343 135.717 221.783 135.751 222.224 135.756H227.144V140.515H201.083V135.756H205.74C206.181 135.751 206.62 135.717 207.056 135.655C207.289 135.591 207.504 135.476 207.686 135.318C207.868 135.16 208.013 134.964 208.109 134.743C208.157 134.408 208.187 134.07 208.2 133.731V126.218C208.2 125.965 208.2 125.965 207.866 125.57L193.58 109.35C192.81 108.55 191.494 107.264 189.469 107.264H184.832V102.505H211.035V107.264H207.876C207.168 107.264 206.682 107.973 207.289 108.742L216.189 119.384C216.28 119.505 216.341 119.505 216.462 119.414C216.584 119.323 225.514 108.834 225.575 108.742C225.65 108.646 225.705 108.536 225.736 108.418C225.768 108.3 225.775 108.177 225.758 108.056C225.741 107.935 225.7 107.819 225.637 107.714C225.574 107.609 225.491 107.518 225.393 107.446C225.215 107.322 225.002 107.258 224.785 107.264L221.525 107.254ZM157.899 107.224H162.81C165.048 107.224 165.443 108.084 165.473 110.17L165.756 126.026L139.614 102.495H120.933V107.254H125.105C128.112 107.254 128.324 108.915 128.324 110.393V132.799C128.324 134.095 128.334 135.786 126.482 135.786H121.358V140.515H143.269V135.756H137.923C135.776 135.756 135.695 134.774 135.655 132.688V113.633L165.756 140.474H173.421L173.016 110.14C173.057 107.932 173.208 107.193 175.476 107.193H180.266V102.435H157.899V107.224Z" fill="black"/>
</svg>
