<svg width="240" height="240" viewBox="0 0 240 240" fill="none" xmlns="http://www.w3.org/2000/svg">
<path d="M117.885 182.56C117.877 180.221 118.332 177.903 119.224 175.741C120.116 173.578 121.427 171.613 123.081 169.96C124.736 168.306 126.702 166.996 128.865 166.106C131.028 165.215 133.346 164.761 135.685 164.77C145.345 164.79 153.285 172.72 153.485 182.56C153.383 187.249 151.475 191.718 148.159 195.034C144.842 198.35 140.374 200.258 135.685 200.36C125.785 200.21 117.855 192.28 117.885 182.56ZM135.685 193.8C141.035 193.71 145.455 188.69 145.515 182.56C145.455 176.3 141.035 171.28 135.685 171.32C130.105 171.28 125.675 176.3 125.845 182.56C125.665 188.69 130.105 193.71 135.685 193.8ZM173.615 172.25V199.41H166.125V172.25H155.355V166.17H183.925V172.25H173.615ZM192.815 191.91L190.015 199.41H181.115L195.165 166.18H204.535L218.115 199.41H209.225L206.415 191.91H192.815ZM204.535 186.31L199.855 174.13L195.165 186.3L204.535 186.31ZM35.915 172.24V199.4H28.425V172.24H18.125V166.16H46.225V172.24H35.915ZM48.105 182.54C48.1103 177.825 49.9866 173.304 53.322 169.97C56.6574 166.637 61.1793 164.763 65.895 164.76C70.5995 164.802 75.0998 166.688 78.4284 170.013C81.757 173.338 83.648 177.836 83.695 182.54C83.6103 187.235 81.7078 191.713 78.3878 195.033C75.0678 198.353 70.5894 200.256 65.895 200.34C61.1855 200.304 56.6792 198.417 53.349 195.086C50.0187 191.756 48.1416 187.25 48.105 182.54ZM65.895 193.8C71.295 193.72 75.725 188.7 75.725 182.56C75.725 176.31 71.295 171.29 65.885 171.33C60.365 171.29 55.935 176.31 56.065 182.56C55.935 188.7 60.365 193.72 65.885 193.8M104.285 199.42V186.78L117.405 166.18H108.975L100.545 180.22L92.575 166.18H83.675L96.805 186.78V199.42H104.285ZM118.355 36.9104C68.335 36.9104 27.795 62.0404 27.795 93.0104C27.795 124 68.335 149.11 118.355 149.11C168.375 149.11 208.905 124.01 208.905 93.0104C208.905 62.0304 168.365 36.9104 118.355 36.9104ZM165.535 60.9604C167.885 67.5804 157.685 73.8004 140.525 76.7204L140.495 76.7604C138.225 63.0204 133.255 52.4404 126.955 47.3604C146.815 48.5804 163.035 53.9204 165.535 60.9604ZM118.355 60.2604C123.315 60.2604 127.585 67.1004 129.555 78.0504H129.585C122.109 78.6117 114.601 78.6117 107.125 78.0504H107.145C109.115 67.1004 113.395 60.2604 118.345 60.2604M71.155 60.9604C73.655 53.9204 89.875 48.5804 109.735 47.3604C103.435 52.4404 98.465 63.0104 96.195 76.7604L96.175 76.7204C79.005 73.8004 68.805 67.5804 71.155 60.9604ZM42.845 93.8604C42.845 87.6104 44.905 81.6604 48.645 76.2504L49.535 75.0204L49.555 74.9804L50.505 73.7804L50.945 73.2304C51.6446 72.3873 52.3786 71.5733 53.145 70.7904C54.1759 69.7264 55.2537 68.7087 56.375 67.7404L56.425 67.6904L56.775 67.3904L57.115 67.1004C59.315 77.3004 73.865 86.0604 94.925 89.8504L94.935 89.8304C94.895 91.1504 94.8717 92.4637 94.865 93.7704C94.865 114.93 100.325 131.63 108.385 139.15C71.385 136.2 42.845 117.05 42.845 93.8604ZM118.345 123.97C111.515 123.97 105.975 110.21 105.975 92.0704V91.2304L106.025 91.3104C114.24 92.009 122.5 92.0057 130.715 91.3004V92.0704C130.715 110.21 125.165 123.97 118.345 123.97ZM128.305 139.14C136.365 131.62 141.825 114.92 141.825 93.7604C141.825 92.4271 141.802 91.1171 141.755 89.8304C162.825 86.0604 177.375 77.2904 179.575 67.1004L180.675 68.0504L181.035 68.3704L181.845 69.1204C182.018 69.2671 182.185 69.4237 182.345 69.5904L182.425 69.6704C182.612 69.8437 182.792 70.0204 182.965 70.2004L183.545 70.7804L184.645 71.9604L185.205 72.5904L185.685 73.1504L185.745 73.2204L186.655 74.3504L187.145 74.9904L187.605 75.6104L188.045 76.2404C191.785 81.6504 193.845 87.6004 193.845 93.8404C193.845 117.03 165.295 136.19 128.305 139.14Z" fill="#EC0318"/>
</svg>
